<svg fill="none" height="467" viewBox="0 0 466 467" width="466" xmlns="http://www.w3.org/2000/svg"><path d="m441.75 226.747c7.169 37.15 21.703 112.446-13.077 162.816-63.128 91.419-277.796 84.977-368.4731-30.28-7.8407-9.965-47.1657-61.943-42.8736-133.118 7.4413-123.454 141.7827-232.87814 249.4467-211.3861 63.011 12.5779 104.892 67.6032 122.134 90.2621 7.104 9.331 39.646 53.342 52.843 121.706z" fill="#919eab" fill-opacity=".08"/><path d="m163.442 46.5679v371.3731c0 1.877.649 3.696 1.837 5.149 1.189 1.454 2.843 2.451 4.683 2.824l95.389 19.268 25.969-245.901-25.164-173.3022-95.637 12.5227c-1.958.2567-3.755 1.2166-5.057 2.7008-1.302 1.4841-2.02 3.3912-2.02 5.3656z" fill="#c4cdd5"/><path d="m434.814 32.6592-167.97-6.7278c-6.63-.2636-11.997 4.4405-11.997 10.51v398.4146c0 6.07 5.381 10.682 11.997 10.304l167.97-9.62c6.096-.349 11.026-5.336 11.026-11.137v-380.7981c0-5.8012-4.93-10.7042-11.026-10.9457z" fill="#dfe3e8"/><path clip-rule="evenodd" d="m266.426 44.3043v28.193c0 4.3142 3.817 7.9181 8.51 8.0443l152.379 4.1785c4.364.1199 7.893-3.1445 7.893-7.2882v-27.088c0-4.1453-3.529-7.645-7.893-7.8028l-152.365-5.727c-4.707-.1768-8.524 3.176-8.524 7.4902zm11.948 6.6253c2.168.0679 3.923-1.4838 3.923-3.4728 0-1.9874-1.754-3.6717-3.923-3.7428-2.169-.071-3.929 1.4791-3.929 3.4728 0 1.9938 1.762 3.6749 3.929 3.7428zm16.312-3.0323c0 1.9827-1.745 3.5297-3.9 3.4555s-3.907-1.7443-3.907-3.7301c0-1.9859 1.751-3.5344 3.907-3.4571 2.156.0774 3.9 1.7443 3.9 3.7317zm8.443 3.8764c2.142.0726 3.879-1.4697 3.879-3.4476s-1.732-3.6417-3.879-3.7191c-2.146-.0773-3.883 1.4618-3.883 3.446 0 1.9843 1.741 3.6481 3.883 3.7207z" fill="#f9fafb" fill-rule="evenodd"/><path clip-rule="evenodd" d="m266.426 91.9074v28.1916c0 4.314 3.817 7.874 8.51 7.951l152.379 2.494c4.364.073 7.893-3.23 7.893-7.375v-27.0879c0-4.1453-3.529-7.5992-7.893-7.716l-152.365-4.0427c-4.707-.1247-8.524 3.2708-8.524 7.585zm11.948 6.486c2.168.0505 3.923-1.5201 3.923-3.5091s-1.754-3.6433-3.923-3.6986c-2.169-.0552-3.929 1.517-3.929 3.5092 0 1.9921 1.762 3.648 3.929 3.6985zm16.312-3.2107c0 1.9827-1.745 3.5502-3.9 3.4997s-3.907-1.7017-3.907-3.6875 1.751-3.5533 3.907-3.4997c2.156.0537 3.9 1.7065 3.9 3.6875zm8.443 3.7868c2.142.0505 3.879-1.5123 3.879-3.4902 0-1.9763-1.732-3.6228-3.879-3.6764-2.146-.0537-3.883 1.5091-3.883 3.4901 0 1.9811 1.741 3.626 3.883 3.6765z" fill="#f9fafb" fill-rule="evenodd"/><path clip-rule="evenodd" d="m266.426 139.509v28.201c0 4.306 3.817 7.823 8.51 7.848l152.379.818c4.364.022 7.893-3.318 7.893-7.464v-27.088c0-4.145-3.529-7.559-7.893-7.627l-152.365-2.368c-4.707-.073-8.524 3.365-8.524 7.68zm11.948 6.355c2.168.027 3.923-1.565 3.923-3.554s-1.754-3.626-3.923-3.656-3.929 1.562-3.929 3.554 1.762 3.629 3.929 3.656zm16.312-3.391c0 1.983-1.745 3.569-3.9 3.542-2.155-.026-3.907-1.659-3.907-3.644 0-1.986 1.751-3.573 3.907-3.543s3.9 1.663 3.9 3.645zm8.443 3.694c2.142.025 3.879-1.556 3.879-3.533 0-1.978-1.732-3.599-3.879-3.629-2.146-.03-3.883 1.555-3.883 3.531 0 1.977 1.741 3.606 3.883 3.631z" fill="#f9fafb" fill-rule="evenodd"/><path clip-rule="evenodd" d="m266.426 187.112v28.191c0 4.314 3.817 7.79 8.51 7.763l152.379-.873c4.364-.025 7.893-3.404 7.893-7.55v-27.088c0-4.145-3.529-7.522-7.893-7.541l-152.365-.677c-4.707-.02-8.524 3.46-8.524 7.775zm11.948 6.222c2.168.002 3.923-1.609 3.923-3.597 0-1.989-1.754-3.606-3.923-3.612-2.169-.007-3.929 1.604-3.929 3.596s1.762 3.611 3.929 3.613zm16.312-3.572c0 1.983-1.745 3.59-3.9 3.587-2.155-.004-3.907-1.615-3.907-3.603 0-1.987 1.751-3.591 3.907-3.585 2.156.007 3.9 1.618 3.9 3.601zm8.443 3.601c2.142.003 3.879-1.598 3.879-3.576 0-1.976-1.732-3.585-3.879-3.591-2.146-.006-3.883 1.594-3.883 3.575 0 1.982 1.741 3.589 3.883 3.592z" fill="#f9fafb" fill-rule="evenodd"/><path clip-rule="evenodd" d="m266.426 234.713v28.193c0 4.314 3.817 7.746 8.51 7.669l152.379-2.558c4.364-.072 7.893-3.491 7.893-7.637v-27.088c0-4.139-3.529-7.482-7.893-7.454l-152.365 1.007c-4.707.032-8.524 3.554-8.524 7.868zm11.948 6.083c2.168-.012 3.923-1.643 3.923-3.63 0-1.991-1.754-3.587-3.923-3.577-2.169.009-3.929 1.651-3.929 3.64s1.762 3.58 3.929 3.567zm16.312-3.744c0 1.983-1.745 3.607-3.9 3.631-2.155.023-3.907-1.579-3.907-3.558 0-1.98 1.751-3.612 3.907-3.631s3.9 1.575 3.9 3.558zm8.443 3.508c2.142-.022 3.879-1.642 3.879-3.62 0-1.976-1.732-3.564-3.879-3.547-2.146.017-3.883 1.637-3.883 3.618s1.741 3.571 3.883 3.549z" fill="#f9fafb" fill-rule="evenodd"/><path clip-rule="evenodd" d="m266.426 282.312v28.195c0 4.314 3.817 7.705 8.51 7.574l152.379-4.235c4.364-.12 7.893-3.579 7.893-7.724v-27.088c0-4.146-3.529-7.443-7.893-7.366l-152.365 2.684c-4.707.082-8.524 3.648-8.524 7.96zm11.948 5.961c2.168-.052 3.923-1.694 3.923-3.683s-1.754-3.566-3.923-3.525c-2.169.042-3.929 1.691-3.929 3.683s1.762 3.577 3.929 3.525zm16.312-3.932c0 1.984-1.745 3.631-3.9 3.674-2.155.042-3.907-1.53-3.907-3.516s1.751-3.631 3.907-3.673c2.156-.043 3.9 1.533 3.9 3.515zm8.443 3.415c2.142-.045 3.879-1.685 3.879-3.661 0-1.978-1.732-3.547-3.879-3.506-2.146.041-3.883 1.683-3.883 3.662 0 1.98 1.741 3.549 3.883 3.505z" fill="#f9fafb" fill-rule="evenodd"/><path clip-rule="evenodd" d="m266.426 329.917v28.193c0 4.312 3.817 7.662 8.51 7.479l152.379-5.918c4.364-.17 7.893-3.667 7.893-7.812v-27.088c0-4.146-3.529-7.404-7.893-7.279l-152.365 4.374c-4.707.13-8.524 3.737-8.524 8.051zm11.948 5.826c2.168-.069 3.923-1.738 3.923-3.727 0-1.987-1.754-3.548-3.923-3.482s-3.929 1.735-3.929 3.727 1.762 3.552 3.929 3.482zm16.312-4.112c0 1.983-1.745 3.647-3.9 3.716-2.155.07-3.907-1.487-3.907-3.473 0-1.985 1.751-3.649 3.907-3.715 2.156-.067 3.9 1.49 3.9 3.472zm8.443 3.322c2.142-.075 3.879-1.727 3.879-3.705 0-1.977-1.732-3.535-3.879-3.462-2.146.073-3.883 1.722-3.883 3.703s1.741 3.538 3.883 3.464z" fill="#f9fafb" fill-rule="evenodd"/><path clip-rule="evenodd" d="m266.426 377.519v28.193c0 4.314 3.817 7.621 8.51 7.386l152.379-7.614c4.364-.211 7.893-3.747 7.893-7.892v-27.088c0-4.146-3.529-7.366-7.893-7.192l-152.365 6.057c-4.707.187-8.524 3.835-8.524 8.15zm11.948 5.695c2.168-.093 3.923-1.782 3.923-3.77 0-1.989-1.754-3.53-3.923-3.44s-3.929 1.776-3.929 3.77 1.762 3.533 3.929 3.44zm16.312-4.294c0 1.983-1.745 3.665-3.9 3.757s-3.907-1.441-3.907-3.429c0-1.987 1.751-3.668 3.907-3.758s3.9 1.447 3.9 3.43zm8.443 3.229c2.142-.092 3.879-1.77 3.879-3.746 0-1.978-1.732-3.509-3.879-3.421-2.146.088-3.883 1.766-3.883 3.747s1.741 3.511 3.883 3.42z" fill="#f9fafb" fill-rule="evenodd"/><path d="m426.579 73.7921c0 2.2547-1.862 4.0638-4.116 3.9983l-103.839-3.0178c-2.163-.0628-3.884-1.8344-3.884-3.9983v-21.6037c0-2.2656 1.88-4.0789 4.144-3.9974l103.839 3.7403c2.152.0776 3.856 1.8443 3.856 3.9975z" fill="#dfe3e8"/><path d="m426.579 119.669c0 2.238-1.835 4.04-4.072 4l-103.839-1.869c-2.18-.039-3.928-1.818-3.928-3.999v-21.6065c0-2.2482 1.853-4.0548 4.1-3.9987l103.839 2.5912c2.17.0541 3.9 1.8285 3.9 3.9988z" fill="#dfe3e8"/><path d="m426.579 165.547c0 2.22-1.808 4.016-4.028 4l-103.839-.722c-2.198-.016-3.972-1.802-3.972-4v-21.608c0-2.231 1.825-4.03 4.056-3.999l103.839 1.445c2.187.03 3.944 1.812 3.944 3.999z" fill="#dfe3e8"/><path d="m426.579 211.423c0 2.203-1.781 3.991-3.983 4l-103.839.425c-2.216.009-4.017-1.784-4.017-4v-21.607c0-2.214 1.798-4.007 4.012-4l103.839.297c2.204.006 3.988 1.795 3.988 4z" fill="#dfe3e8"/><path d="m426.579 257.3c0 2.186-1.754 3.967-3.939 4l-103.839 1.571c-2.233.034-4.061-1.767-4.061-3.999v-21.608c0-2.196 1.771-3.982 3.968-4l103.839-.848c2.221-.018 4.032 1.778 4.032 4z" fill="#dfe3e8"/><path d="m426.579 303.176c0 2.168-1.727 3.941-3.895 3.998l-103.839 2.719c-2.249.059-4.105-1.749-4.105-3.999v-21.604c0-2.179 1.745-3.957 3.923-3.999l103.839-1.998c2.239-.043 4.077 1.76 4.077 3.999z" fill="#dfe3e8"/><path d="m426.579 349.05c0 2.151-1.701 3.917-3.851 3.997l-103.839 3.868c-2.266.085-4.149-1.729-4.149-3.997v-21.603c0-2.162 1.718-3.933 3.879-3.999l103.839-3.145c2.256-.068 4.121 1.742 4.121 3.998z" fill="#dfe3e8"/><path d="m426.579 394.926c0 2.134-1.675 3.892-3.807 3.995l-103.839 5.014c-2.282.11-4.193-1.71-4.193-3.995v-21.6c0-2.145 1.692-3.908 3.835-3.997l103.839-4.291c2.272-.094 4.165 1.723 4.165 3.997z" fill="#dfe3e8"/><g fill="#919eab"><path d="m325.633 72.8904-3.374-.0995v-20.3602l3.374.1152z"/><path d="m331.62 73.0671-3.366-.0994v-2.4484l3.366.1026z"/><path d="m337.588 73.2439-3.356-.0994v-13.8977l3.356.1105z"/><path d="m343.541 73.419-3.346-.0978v-5.9938l3.346.1042z"/><path d="m349.476 73.5944-3.337-.0979v-15.3294l3.337.1105z"/><path d="m355.395 73.7695-3.326-.0978v-10.5558l3.326.1057z"/><path d="m361.297 73.9447-3.318-.0994v-18.305l3.318.1121z"/><path d="m367.183 74.1184-3.308-.0978v-20.1613l3.308.1136z"/><path d="m373.054 74.2921-3.301-.0979v-10.0665l3.301.1058z"/><path d="m378.906 74.464-3.29-.0963v-22.0098l3.29.1137z"/><path d="m384.743 74.6362-3.282-.0963v-18.7185l3.282.112z"/><path d="m390.563 74.8082-3.271-.0963v-5.0119l3.271.101z"/><path d="m396.369 74.9804-3.264-.0963v-11.765l3.264.1058z"/><path d="m402.156 75.1508-3.253-.0947v-16.9332l3.253.1105z"/><path d="m407.929 75.3228-3.244-.0963v-12.3317l3.244.1058z"/><path d="m413.686 75.4917-3.236-.0947v-19.1005l3.236.1105z"/><path d="m419.427 75.6623-3.228-.0963v-21.2l3.228.1105z"/><path d="m325.633 119.838-3.374-.063v-20.3602l3.374.0789z"/><path d="m331.62 119.949-3.366-.062v-2.448l3.366.064z"/><path d="m337.588 120.059-3.356-.061v-13.898l3.356.073z"/><path d="m343.541 120.17-3.346-.062v-5.994l3.346.067z"/><path d="m349.476 120.279-3.337-.062v-15.329l3.337.074z"/><path d="m355.395 120.389-3.326-.061v-10.556l3.326.069z"/><path d="m361.297 120.498-3.318-.062v-18.305l3.318.075z"/><path d="m367.183 120.607-3.308-.062v-20.161l3.308.077z"/><path d="m373.054 120.716-3.301-.062v-10.066l3.301.069z"/><path d="m378.906 120.823-3.29-.06v-22.0097l3.29.0773z"/><path d="m384.743 120.932-3.282-.062v-18.718l3.282.076z"/><path d="m390.563 121.039-3.271-.06v-5.013l3.271.065z"/><path d="m396.369 121.147-3.264-.06v-11.765l3.264.069z"/><path d="m402.156 121.254-3.253-.06v-16.933l3.253.074z"/><path d="m407.929 121.36-3.244-.06v-12.33l3.244.069z"/><path d="m413.686 121.467-3.236-.06v-19.1l3.236.074z"/><path d="m419.427 121.573-3.228-.06v-21.202l3.228.078z"/><path d="m384.742 167.227-3.282-.026v-23.593l3.282.043z"/><path d="m390.561 167.269-3.27-.024v-23.561l3.27.042z"/><path d="m396.367 167.313-3.264-.025v-23.528l3.264.042z"/><path d="m402.154 167.356-3.253-.024v-23.497l3.253.043z"/><path d="m407.928 167.399-3.244-.024v-23.464l3.244.043z"/><path d="m413.685 167.441-3.236-.023v-23.431l3.236.043z"/><path d="m419.426 167.485-3.229-.025v-23.399l3.229.043z"/><path d="m325.631 166.786-3.373-.025v-20.36l3.373.041z"/><path d="m331.619 166.83-3.365-.025v-2.447l3.365.027z"/><path d="m337.59 166.874-3.356-.025v-13.896l3.356.036z"/><path d="m343.542 166.919-3.347-.024v-5.994l3.347.03z"/><path d="m349.478 166.963-3.337-.024v-15.329l3.337.036z"/><path d="m355.396 167.007-3.326-.024v-10.556l3.326.034z"/><path d="m361.299 167.051-3.319-.026v-18.305l3.319.04z"/><path d="m367.184 167.095-3.309-.025v-20.16l3.309.039z"/><path d="m373.055 167.139-3.301-.025v-10.066l3.301.033z"/><path d="m378.907 167.182-3.29-.024v-22.01l3.29.041z"/><path d="m384.743 167.226-3.282-.025v-18.719l3.282.04z"/><path d="m390.564 167.269-3.271-.023v-5.012l3.271.028z"/><path d="m396.37 167.313-3.265-.025v-11.764l3.265.033z"/><path d="m402.156 167.355-3.254-.023v-16.932l3.254.036z"/><path d="m407.928 167.399-3.244-.024v-12.33l3.244.033z"/><path d="m413.685 167.441-3.236-.023v-19.101l3.236.04z"/><path d="m419.427 167.485-3.228-.025v-21.2l3.228.039z"/><path d="m325.633 213.734-3.374.012v-20.36l3.374.003z"/><path d="m331.62 213.712-3.366.012v-2.448l3.366-.009z"/><path d="m337.588 213.691-3.356.011v-13.896l3.356-.001z"/><path d="m343.541 213.669-3.346.013v-5.994l3.346-.008z"/><path d="m349.476 213.649-3.337.011v-15.33h3.337z"/><path d="m355.395 213.626-3.326.013v-10.556l3.326-.003z"/><path d="m361.297 213.606-3.318.011v-18.305l3.318.002z"/><path d="m367.183 213.584-3.308.013v-20.162l3.308.003z"/><path d="m373.054 213.563-3.301.011v-10.066l3.301-.003z"/><path d="m378.906 213.541-3.29.013v-22.01l3.29.006z"/><path d="m384.743 213.521-3.282.012v-18.72l3.282.003z"/><path d="m390.563 213.5-3.271.011v-5.012l3.271-.008z"/><path d="m396.369 213.48-3.264.011v-11.765l3.264-.002z"/><path d="m402.156 213.457-3.253.013v-16.931l3.253.001z"/><path d="m407.929 213.437-3.244.013v-12.332l3.244-.002z"/><path d="m413.686 213.416-3.236.013v-19.1l3.236.003z"/><path d="m419.427 213.396-3.228.011v-21.2l3.228.005z"/><path d="m325.633 260.682-3.374.049v-20.361l3.374-.033z"/><path d="m331.62 260.593-3.366.051v-2.449l3.366-.047z"/><path d="m337.588 260.506-3.356.049v-13.897l3.356-.038z"/><path d="m343.541 260.42-3.346.049v-5.994l3.346-.044z"/><path d="m349.476 260.333-3.337.049v-15.33l3.337-.036z"/><path d="m355.395 260.246-3.326.049v-10.556l3.326-.041z"/><path d="m361.297 260.159-3.318.049v-18.306l3.318-.034z"/><path d="m367.183 260.072-3.308.049v-20.161l3.308-.032z"/><path d="m373.054 259.987-3.301.047v-10.064l3.301-.041z"/><path d="m378.906 259.902-3.29.047v-22.01l3.29-.03z"/><path d="m384.743 259.815-3.282.049v-18.719l3.282-.034z"/><path d="m390.563 259.73-3.271.049v-5.014l3.271-.042z"/><path d="m396.369 259.645-3.264.048v-11.764l3.264-.038z"/><path d="m402.156 259.561-3.253.047v-16.931l3.253-.035z"/><path d="m407.929 259.476-3.244.047v-12.33l3.244-.038z"/><path d="m413.686 259.392-3.236.047v-19.1l3.236-.033z"/><path d="m419.427 259.308-3.228.048v-21.202l3.228-.031z"/><path d="m325.633 307.629-3.374.087v-20.36l3.374-.071z"/><path d="m331.62 307.475-3.366.087v-2.447l3.366-.085z"/><path d="m337.588 307.322-3.356.086v-13.897l3.356-.076z"/><path d="m343.541 307.169-3.346.086v-5.993l3.346-.081z"/><path d="m349.476 307.017-3.337.085v-15.329l3.337-.073z"/><path d="m355.395 306.864-3.326.087v-10.556l3.326-.077z"/><path d="m361.297 306.712-3.318.086v-18.305l3.318-.071z"/><path d="m367.183 306.562-3.308.084v-20.161l3.308-.068z"/><path d="m373.054 306.411-3.301.085v-10.066l3.301-.078z"/><path d="m378.906 306.261-3.29.084v-22.01l3.29-.067z"/><path d="m384.743 306.111-3.282.084v-18.719l3.282-.069z"/><path d="m390.563 305.961-3.271.084v-5.012l3.271-.081z"/><path d="m396.369 305.811-3.264.084v-11.764l3.264-.075z"/><path d="m402.156 305.663-3.253.083v-16.931l3.253-.071z"/><path d="m407.929 305.514-3.244.084v-12.332l3.244-.072z"/><path d="m413.686 305.366-3.236.084v-19.101l3.236-.068z"/><path d="m419.427 305.219-3.228.082v-21.2l3.228-.066z"/><path d="m325.633 354.577-3.374.123v-20.36l3.374-.107z"/><path d="m331.62 354.356-3.366.125v-2.448l3.366-.122z"/><path d="m337.588 354.138-3.356.124v-13.898l3.356-.112z"/><path d="m343.541 353.919-3.346.123v-5.994l3.346-.118z"/><path d="m349.476 353.701-3.337.122v-15.328l3.337-.111z"/><path d="m355.395 353.483-3.326.124v-10.556l3.326-.114z"/><path d="m361.297 353.267-3.318.122v-18.307l3.318-.107z"/><path d="m367.183 353.051-3.308.121v-20.161l3.308-.106z"/><path d="m373.054 352.835-3.301.121v-10.066l3.301-.114z"/><path d="m378.906 352.62-3.29.12v-22.01l3.29-.103z"/><path d="m384.743 352.405-3.282.12v-18.718l3.282-.106z"/><path d="m390.563 352.191-3.271.119v-5.011l3.271-.116z"/><path d="m396.369 351.977-3.264.12v-11.765l3.264-.11z"/><path d="m402.156 351.764-3.253.12v-16.931l3.253-.106z"/><path d="m407.929 351.553-3.244.12v-12.332l3.244-.109z"/><path d="m413.686 351.341-3.236.119v-19.101l3.236-.104z"/><path d="m419.427 351.13-3.228.118v-21.2l3.228-.103z"/><path d="m325.633 401.525-3.374.161v-20.36l3.374-.145z"/><path d="m331.62 401.239-3.366.161v-2.448l3.366-.159z"/><path d="m337.588 400.954-3.356.159v-13.896l3.356-.15z"/><path d="m343.541 400.669-3.346.16v-5.994l3.346-.155z"/><path d="m349.476 400.385-3.337.16v-15.33l3.337-.146z"/><path d="m355.395 400.103-3.326.158v-10.555l3.326-.151z"/><path d="m361.297 399.82-3.318.158v-18.305l3.318-.143z"/><path d="m367.183 399.539-3.308.158v-20.161l3.308-.142z"/><path d="m373.054 399.258-3.301.158v-10.066l3.301-.15z"/><path d="m378.906 398.979-3.29.156v-22.008l3.29-.141z"/><path d="m384.743 398.7-3.282.156v-18.719l3.282-.142z"/><path d="m390.563 398.422-3.271.156v-5.012l3.271-.153z"/><path d="m396.369 398.144-3.264.156v-11.765l3.264-.147z"/><path d="m402.156 397.868-3.253.154v-16.931l3.253-.142z"/><path d="m407.929 397.591-3.244.155v-12.33l3.244-.145z"/><path d="m413.686 397.317-3.236.154v-19.1l3.236-.141z"/><path d="m419.427 397.042-3.228.155v-21.202l3.228-.139z"/></g><path d="m327.098 389.524c8.383 4.262 18.919.349 23.52-8.731 4.602-9.08 1.549-19.89-6.836-24.152-.435-.221-.877-.406-1.322-.584 1.542-4.959 2.719-10.024 3.52-15.154.474 0 .963-.01 1.453-.054 9.566-.853 17.159-9.644 16.958-19.636-.2-9.992-8.117-17.399-17.68-16.546-.5.044-.991.123-1.48.21-.991-4.921-2.36-9.759-4.095-14.469.439-.258.878-.524 1.305-.824 8.185-5.734 10.801-17.049 5.841-25.278s-15.61-10.246-23.794-4.513c-.419.295-.814.613-1.204.935-3.254-3.595-6.805-6.909-10.614-9.909.27-.442.533-.89.772-1.361 4.611-9.078 10.634-18.996 2.183-23.121-19.549-9.544-27.941-1.375-32.547 7.705-.238.474-.445.947-.642 1.421-4.67-1.307-9.44-2.217-14.263-2.723.03-.505.053-1.01.043-1.523-.2-9.991 2.764-15.398-6.838-15.584-20.94-.407-28.005 8.682-27.805 18.671.011.523.054 1.034.106 1.541-4.827 1.378-9.54 3.127-14.098 5.231-.218-.445-.445-.887-.704-1.318-4.957-8.226-15.609-10.246-23.794-4.511s-10.802 17.048-5.841 25.277c.255.422.532.815.815 1.204-3.668 3.675-7.062 7.613-10.155 11.783-.406-.254-.818-.502-1.252-.723-8.385-4.262-18.919-.349-23.52 8.731-4.602 9.08-1.55 19.89 6.835 24.152.434.221.878.405 1.323.584-1.542 4.958-2.719 10.023-3.52 15.154-.474 0-.963.009-1.453.054-9.567.852-17.159 9.643-16.96 19.635.199 9.993 8.119 17.399 17.68 16.547.501-.045.992-.123 1.479-.21.994 4.921 2.366 9.759 4.105 14.469-.441.257-.878.524-1.306.824-8.185 5.733-10.8 17.048-5.841 25.277 4.96 8.229 21.366 12.048 29.551 6.314.42-.293-4.942-2.413-4.553-2.735 3.254 3.594 6.805 6.909 10.615 9.908-.27.442-.535.891-.774 1.361-4.609 9.078-1.548 19.89 6.837 24.152s18.919.349 23.528-8.731c.239-.474.445-.947.643-1.421 4.669 1.307 9.44 2.218 14.262 2.723-.03.505-.054 1.011-.043 1.524.201 9.99 8.117 17.399 17.68 16.546 9.563-.852 17.159-9.643 16.959-19.636-.011-.521-.056-1.032-.106-1.539 4.827-1.378 9.54-3.127 14.098-5.231.218.445.444.887.702 1.318 4.959 8.226 15.611 10.246 23.796 4.512 8.184-5.735 10.8-17.049 5.84-25.278-.254-.421-.533-.814-.816-1.204 3.669-3.674 7.064-7.612 10.157-11.783.404.25.814.498 1.25.719zm-104.527 1.326c-30.445-15.456-41.561-54.708-24.819-87.675 16.743-32.967 54.985-47.156 85.427-31.699 30.443 15.457 41.557 54.71 24.82 87.675-16.738 32.965-54.984 47.156-85.428 31.699z" fill="#b3200e"/><path d="m347.442 340.856c9.566-.852 17.159-9.643 16.959-19.635-.201-9.993-8.117-17.399-17.68-16.547-.5.045-.991.123-1.481.21-.99-4.921-2.359-9.758-4.094-14.469.438-.257.877-.524 1.305-.824 8.185-5.733 18.311-19.588 12.535-27.263-10.96-14.565-22.302-8.261-30.485-2.526-.42.295-.814.613-1.204.935-3.254-3.595-6.805-6.909-10.614-9.909.27-.442.533-.89.771-1.361 2.51-4.94 2.731-10.388 1.074-15.019-7.905 13.913-15.693 27.891-23.363 41.934 24.288 17.796 32.02 52.869 16.839 82.77-12.862 25.336-38.435 39.563-63.409 37.781-1.115 2.889-2.21 5.793-3.4 8.654-3.238 7.763-6.915 15.367-10.597 22.96 2.315.436 4.64.778 6.974 1.024-.03.505-.054 1.011-.043 1.524.201 9.99 6.265 18.48 23.604 17.559 9.59-.508 11.24-10.656 11.039-20.649-.011-.521-.054-1.032-.106-1.539 4.827-1.379 9.541-3.128 14.098-5.233.218.447.444.889.704 1.32 4.957 8.226 22.152 11.721 30.336 5.987 8.183-5.733 4.262-18.525-.697-26.753-.254-.421-.533-.814-.814-1.204 3.668-3.675 7.062-7.613 10.155-11.783.405.254.816.504 1.252.723 8.383 4.262 18.919.349 23.52-8.731s1.549-19.89-6.835-24.152c-.436-.221-.878-.405-1.323-.584 1.542-4.958 2.719-10.023 3.52-15.154.488.006.971-.001 1.46-.046z" fill="#770508"/><path d="m336.119 390.55c8.383 4.262 18.919.347 23.528-8.731 4.609-9.079 1.549-19.89-6.835-24.152-.436-.221-.878-.408-1.323-.584 1.542-4.959 2.719-10.024 3.52-15.155.474 0 .963-.009 1.453-.052 9.566-.852 17.158-9.643 16.958-19.635-.2-9.993-8.117-17.401-17.68-16.547-.5.044-.991.123-1.48.21-.991-4.921-2.36-9.758-4.095-14.469.44-.257.877-.524 1.305-.824 8.185-5.733 10.801-17.048 5.841-25.277s-15.609-10.247-23.794-4.513c-.42.293-.814.611-1.204.933-3.254-3.595-6.805-6.909-10.614-9.907.27-.442.533-.891.773-1.361 4.61-9.08 1.549-19.89-6.837-24.152-8.385-4.262-18.919-.349-23.52 8.731-.238.473-.445.947-.643 1.421-4.669-1.306-9.44-2.217-14.262-2.722.03-.505.054-1.012.043-1.523-.201-9.991-8.117-17.399-17.68-16.547-9.563.853-17.159 9.644-16.958 19.635.011.522.053 1.032.105 1.54-4.827 1.378-9.54 3.127-14.098 5.232-.218-.446-.445-.889-.704-1.319-4.956-8.227-15.609-10.248-23.793-4.513-8.185 5.735-10.802 17.049-5.841 25.278.254.421.532.816.815 1.204-3.668 3.675-7.062 7.614-10.155 11.784-.406-.254-.818-.503-1.252-.723-8.385-4.262-18.919-.349-23.528 8.73-4.61 9.078-1.551 19.889 6.835 24.151.434.221.877.406 1.322.583-1.541 4.959-2.718 10.024-3.52 15.154-.473 0-.963.01-1.452.052-9.566.854-17.159 9.645-16.958 19.636.2 9.991 8.117 17.4 17.679 16.546.501-.044.992-.123 1.48-.21.994 4.922 2.366 9.76 4.104 14.471-.441.257-.878.522-1.306.822-8.185 5.735-10.8 17.049-5.84 25.278 4.959 8.229 15.608 10.248 23.793 4.513.42-.294.815-.611 1.205-.933 3.254 3.595 6.804 6.909 10.614 9.909-.27.442-.534.888-.774 1.359-4.609 9.08-1.548 19.889 6.837 24.152 8.385 4.262 18.919.347 23.521-8.731.238-.474.445-.948.642-1.421 4.669 1.306 9.44 2.216 14.262 2.723-.03.505-.053 1.01-.042 1.522.2 9.992 8.117 17.4 17.68 16.548 9.562-.853 17.158-9.645 16.958-19.636-.011-.523-.054-1.032-.106-1.539 4.827-1.379 9.541-3.129 14.098-5.233.218.445.445.889.704 1.318 4.957 8.227 15.609 10.248 23.794 4.513s10.802-17.048 5.841-25.277c-.255-.422-.532-.816-.815-1.205 3.668-3.674 7.062-7.613 10.155-11.784.398.258.808.506 1.244.727zm-104.527 1.326c-30.445-15.458-41.556-54.71-24.819-87.675 16.738-32.965 54.985-47.158 85.429-31.701 30.444 15.458 41.555 54.712 24.818 87.675-16.738 32.963-54.984 47.159-85.428 31.701z" fill="#fa541c"/><path d="m297.472 242.67s-1.736-.241-1.197-3.561c.425-2.603.103-3.473-.511-3.016-.614.456-.701 1.965-.701 1.965s-2.24-1.91-3.157-4.42-1.515-.395-1.713.857c-.197 1.252 1.318 5.14 2.174 5.864.856.725 2.109 3.92 2.109 3.92z" fill="#fdbab9"/><path d="m366.561 445.865s-11.523 5.235-11.706 6.072c-.183.836 7.406-.281 10.508-.158s5.652-.797 5.367-2.111c-.284-1.313-1.367-4.616-1.367-4.616z" fill="#063963"/><path d="m366.141 441.617.699 5.186s1.825.649 3.05-.118l.522-5.683z" fill="#fdbab9"/><path d="m420.384 441.747 1.34 2.15c.185.296.308.628.361.974.052.346.034.699-.055 1.037-.473 1.788-1.405 5.274-1.812 6.183-.556 1.238-8.01 1.973-8.01 1.973s-.664-.936.883-2.064c1.547-1.129 2.543-1.307 3.089-2.976s.911-6.382.911-6.382z" fill="#063963"/><path d="m414.805 436.275c.489.39 2.884 7.656 2.884 7.656s.775.992 2.246-.473.666-.657.666-.657l-.276-7.146z" fill="#fdbab9"/><path d="m359.803 337.429c-.608 15.47-.631 32.277.257 50.232 1.003 20.218 3.017 38.905 5.555 55.844.948.03 1.934.035 2.971 0 .699-.02 1.376-.053 2.032-.099 1.672-4.467 3.095-9.024 4.262-13.648 1.322-5.259 2.317-10.594 2.979-15.975 2.218-17.522-.382-19.05 1.42-32.036 1.595-11.499 3.862-11.949 6.523-28.276 2.887-17.716.737-20.373-.308-21.334-4.445-4.087-14.897-1.304-25.691 5.292z" fill="#116e95"/><path d="m385.497 332.136c-4.245-3.897-13.951-1.537-24.204 4.412 11.795 12.744 13.08 21.009 11.667 26.373-1.599 6.064-6.456 7.809-6.439 14.438.024 8.145 7.375 10.303 7.219 18.924-.103 5.7-3.334 5.64-4.104 12.68-.903 8.33 3.315 11.2 1.951 17.364-.589 2.652-2.267 6.117-7.049 9.686.346 2.526.698 5.036 1.068 7.494.947.03 1.933.034 2.97 0 .699-.02 1.376-.053 2.032-.1 1.672-4.467 3.095-9.023 4.262-13.648 1.325-5.259 2.323-10.594 2.987-15.977 2.218-17.522-.382-19.05 1.42-32.035 1.595-11.5 3.862-11.949 6.523-28.276 2.892-17.717.739-20.375-.303-21.335z" fill="#063963" opacity=".24"/><path d="m367.109 337.17c21.306 31.161 37.39 65.586 47.619 101.921 1.061.492 2.24.675 3.4.528 1.491-.214 2.856-.952 3.852-2.081 1.311-8.154 1.607-16.439.882-24.666-.348-3.928-.966-10.468-3.472-18.541-2.805-9.043-4.736-9.551-8.39-19.119-3.789-9.931-2.877-12.409-6.512-24.835-2.188-7.445-4.901-14.725-8.12-21.784z" fill="#116e95"/><path d="m363.303 253.142s.332 4.352 1.785 7.577c1.314 2.911 7.8 4.566 9.123 5.183s-2.36 2.658-6.109 3.157-14.513-.025-16.493-1.391c-1.979-1.365 1.514-1.367 4.168-2.435 2.653-1.069 4.042-6.365 3.494-8.733-.547-2.368 4.032-3.358 4.032-3.358z" fill="#fdbab9"/><path d="m357.893 249.818c-1.975-2.62-1.133-7.765.632-8.426.503-.188.843.079 5.867 4.191 2.494 2.041 3.707 3.092 3.773 4.499.041.857-.332 1.883-.9 2.604-.294.371-.772.79-1.782 1.579-.897.694-.846.677-1.116.876-.65.474-1.855 1.247-3.844 1.953.067-.589.081-1.183.044-1.775-.046-.769-.191-1.53-.432-2.262-.589-1.651-1.599-2.388-2.242-3.239z" fill="#063963"/><path d="m362.95 256.55s-2.447 1.959-5.429.652c-2.667-1.169-.843-7.444 1.375-8.112.741-.222 1.972.021 2.824.632.504.36.608.661 1.443 1.234.769.529 1.044.521 1.22.83.223.386.218 1.132-.967 2.731.712-.339 1.413-.315 1.78.056.122.138.203.306.236.487.127.839-.836 1.502-2.482 1.49z" fill="#fdbab9"/><path d="m408.421 342.632c-4.237 3.838-11.577 4.149-13.179 4.217-7.541.315-8.618-2.954-16.078-2.635-7.484.316-9.455 3.737-14.761 2.368-.939-.242-4.611-1.309-8.513-6.407-11.05-14.45-1.814-30.348-12.837-50.789-1.661-3.081-3.122-5.79-6.062-8.698-9.512-9.406-18.582-5.128-30.568-12.677-9.835-6.193-16.435-18.641-13.576-24.253 1.293-2.543 2.414-2.21 4.152-2.412 2.918 4.95 10.142 10.987 18.453 14.502 7.885 3.334 13.961 1.737 26.026 1.909 7.373.104 20.032.281 30.07 3.875 25.099 8.985 34.393 39.543 37.141 48.577 2.397 7.901 7.656 25.246-.268 32.423z" fill="#fdab76"/><path d="m387.86 335.691c2.738-3.531-11.384-13.26-9.488-24.6 1.596-9.553 12.919-10.508 15.814-19.329 1.251-3.811 1.016-9.361-4.308-17.62 11.681 12.661 16.868 29.704 18.805 36.07 2.401 7.893 7.661 25.243-.263 32.42-4.239 3.838-11.578 4.149-13.18 4.217-7.541.315-8.617-2.954-16.077-2.635-7.484.316-9.456 3.736-14.762 2.368-.939-.242-4.61-1.309-8.513-6.408-.058-.075-.107-.157-.158-.228 2.946-2.809 6.473-5.072 10.698-6.015 10.386-2.32 19.216 4.619 21.432 1.76z" fill="#fa541c" opacity=".24"/><path d="m214.418 192.796c6.336 3.217 14.297.263 17.78-6.599 3.484-6.862 1.172-15.032-5.166-18.249-.327-.158-.663-.307-.999-.441 1.165-3.747 2.054-7.574 2.661-11.451.363 0 .728 0 1.105-.039 7.23-.646 12.968-7.288 12.816-14.838-.151-7.551-6.134-13.15-13.364-12.506-.379.035-.75.093-1.119.158-.748-3.719-1.782-7.375-3.094-10.935.332-.194.663-.396.987-.622 6.184-4.333 8.162-12.887 4.42-19.1001-3.743-6.2132-11.798-7.7444-17.983-3.4097-.316.221-.614.461-.91.7041-2.459-2.7161-5.143-5.2206-8.022-7.4871.204-.3347.404-.6725.584-1.0277 3.484-6.862 8.037-14.3569 1.65-17.4746-14.774-7.2124-21.113-1.0387-24.597 5.8233-.18.3552-.336.7167-.485 1.0782-3.529-.9852-7.134-1.6716-10.778-2.0522.022-.3804.039-.7624.031-1.1507-.157-7.5503 2.09-11.6356-5.168-11.7776-15.825-.3157-21.163 6.562-21.012 14.1123.008.3946.041.7798.079 1.1634-3.648 1.0417-7.21 2.3637-10.654 3.9542-.158-.3378-.336-.6724-.532-.9976-3.746-6.2164-11.796-7.7428-17.981-3.4097s-8.164 12.8873-4.42 19.1005c.191.3157.401.6157.614.9109-2.772 2.7743-5.337 5.7481-7.673 8.8981-.316-.192-.619-.38-.947-.548-6.3367-3.217-14.2973-.262-17.7812 6.599-3.4839 6.86-1.1792 15.032 5.1524 18.249.3283.166.663.307.9992.441-1.1652 3.747-2.0542 7.574-2.6598 11.451-.3647 0-.7278 0-1.105.039-7.2298.646-12.9679 7.288-12.8163 14.839.1515 7.55 6.1358 13.149 13.364 12.505.3789-.035.7498-.093 1.1192-.158.7481 3.719 1.7825 7.375 3.094 10.935-.3315.195-.663.396-.9866.622-6.1848 4.333-8.1627 12.887-4.42 19.1 3.7428 6.213 16.1491 9.105 22.3331 4.772.316-.222-3.735-1.823-3.441-2.066 2.465 2.718 5.154 5.224 8.04 7.49-.204.335-.404.673-.584 1.028-3.484 6.862-1.172 15.032 5.165 18.249 6.336 3.218 14.298.264 17.782-6.598.18-.355.336-.717.485-1.078 3.529.985 7.135 1.672 10.78 2.052-.024.38-.041.764-.033 1.151.157 7.55 6.134 13.149 13.364 12.505 7.229-.644 12.967-7.288 12.816-14.838 0-.395-.041-.78-.081-1.164 3.648-1.039 7.211-2.358 10.656-3.946.157.338.336.672.532.996 3.746 6.218 11.796 7.744 17.981 3.411s8.164-12.885 4.42-19.1c-.193-.316-.403-.616-.616-.91 2.772-2.777 5.337-5.753 7.674-8.906.304.187.615.374.944.542zm-78.995 1.002c-23.007-11.681-31.413-41.347-18.756-66.258s41.552-35.6393 64.563-23.958c23.011 11.681 31.413 41.347 18.756 66.258-12.656 24.912-41.549 35.639-64.563 23.958z" fill="#116e95"/><path d="m229.789 156.017c7.23-.645 12.968-7.288 12.816-14.838-.151-7.55-6.134-13.149-13.364-12.505-.379.034-.75.094-1.119.157-.748-3.719-1.782-7.375-3.094-10.934.331-.194.663-.396.986-.622 6.185-4.335 13.838-14.805 9.472-20.6051-8.283-11.0072-16.854-6.2432-23.039-1.9084-.316.221-.614.4609-.909.704-2.46-2.7164-5.143-5.221-8.023-7.4871.204-.3347.404-.6725.584-1.0276 1.895-3.7349 2.064-7.8518.812-11.3514-5.976 10.5153-11.861 21.0784-17.656 31.6896 18.353 13.451 24.197 39.956 12.724 62.553-9.722 19.148-29.045 29.901-47.918 28.553-.842 2.183-1.667 4.378-2.569 6.54-2.446 5.868-5.225 11.614-8.008 17.352 1.752.329 3.508.587 5.271.775-.024.38-.041.764-.033 1.151.158 7.55 4.736 13.965 17.838 13.27 7.248-.385 8.494-8.05 8.342-15.605 0-.395-.041-.78-.079-1.164 3.648-1.039 7.21-2.358 10.654-3.946.158.338.336.673.532.996 3.746 6.218 16.733 8.859 22.927 4.526s3.219-14-.527-20.218c-.193-.316-.403-.616-.616-.911 2.773-2.776 5.337-5.753 7.674-8.905.307.193.618.381.947.548 6.336 3.217 14.297.262 17.781-6.598 3.483-6.861 1.171-15.033-5.167-18.25-.327-.158-.663-.306-.999-.44 1.165-3.747 2.054-7.575 2.661-11.451.368-.01.733-.016 1.099-.048z" fill="#063963"/><path d="m221.232 193.571c6.337 3.217 14.299.263 17.783-6.599 3.484-6.861 1.169-15.032-5.167-18.249-.328-.158-.663-.306-.999-.441 1.165-3.746 2.054-7.574 2.66-11.45.363 0 .727-.008 1.105-.04 7.23-.646 12.966-7.288 12.816-14.838-.15-7.551-6.136-13.15-13.366-12.506-.377.035-.748.093-1.117.158-.752-3.719-1.791-7.375-3.107-10.934.333-.195.663-.397.987-.622 6.186-4.334 8.163-12.888 4.42-19.101-3.743-6.2132-11.797-7.7444-17.982-3.4112-.315.2226-.615.4625-.91.7056-2.459-2.7164-5.142-5.221-8.021-7.4871.204-.3347.403-.6725.584-1.0276 3.484-6.862 1.17-15.0326-5.167-18.2497-6.336-3.2171-14.297-.2636-17.78 6.5983-.182.3552-.337.7167-.487 1.0782-3.528-.9853-7.134-1.6717-10.778-2.0521.022-.3805.041-.7625.033-1.1508-.158-7.5502-6.136-13.1494-13.365-12.5037-7.23.6456-12.968 7.2882-12.817 14.8384 0 .3946.041.7798.081 1.1634-3.648 1.0395-7.211 2.3588-10.656 3.9464-.157-.3378-.334-.6725-.53-.9977-3.746-6.2179-11.796-7.7444-17.981-3.4112-6.185 4.3331-8.163 12.8873-4.42 19.1005.192.3157.402.6156.615.9092-2.772 2.7777-5.337 5.7541-7.675 8.9061-.306-.192-.617-.38-.947-.548-6.336-3.217-14.2966-.262-17.7805 6.599-3.4839 6.86-1.1713 15.032 5.165 18.249.3284.166.663.307.9993.441-1.1645 3.747-2.0535 7.574-2.6599 11.451-.3631 0-.7277 0-1.0971.039-7.2298.646-12.9678 7.288-12.8163 14.839.1515 7.55 6.1343 13.149 13.3641 12.505.3772-.035.7482-.093 1.1176-.158.7493 3.719 1.7842 7.375 3.0955 10.935-.3331.194-.663.396-.9866.622-6.1848 4.333-8.1627 12.887-4.4199 19.1 3.7427 6.213 11.7968 7.745 17.9818 3.411.315-.222.615-.462.91-.705 2.462 2.717 5.147 5.222 8.029 7.489-.204.334-.403.672-.584 1.029-3.482 6.86-1.17 15.031 5.166 18.248 6.337 3.217 14.299.263 17.781-6.599.182-.355.336-.716.486-1.078 3.529.985 7.135 1.672 10.779 2.052-.022.381-.04.764-.033 1.151.158 7.55 6.136 13.15 13.365 12.504 7.23-.646 12.968-7.287 12.817-14.838 0-.395-.041-.78-.081-1.164 3.648-1.039 7.211-2.358 10.655-3.946.158.338.337.672.532.996 3.746 6.218 11.797 7.744 17.982 3.411 6.184-4.333 8.162-12.886 4.42-19.1-.191-.316-.403-.616-.616-.91 2.772-2.777 5.337-5.754 7.675-8.906.303.193.614.381.942.548zm-78.994 1.002c-23.007-11.681-31.404-41.347-18.756-66.258 12.647-24.911 41.554-35.6391 64.563-23.958 23.009 11.681 31.413 41.347 18.756 66.258-12.657 24.912-41.555 35.64-64.563 23.958z" fill="#22b8cf"/></svg>