<svg fill="none" height="366" viewBox="0 0 564 366" width="564" xmlns="http://www.w3.org/2000/svg"><path d="m71.9503 356.924c-102.3504-45.286-99.2274-227.415 74.1487-130.091 140.739 91.145 336.655 56.102 348.817-103.208l55.744 50.422c7.49 56.796-136.474 215.045-332.604 107.309-52.733-30.871-94.073-72.414-126.9385-61.201-40.5273 13.833-35.5063 81.607 32.8655 115.164z" fill="#fee9d1"/><path d="m201.638 40.2459c-1.341 54.4511-5.729 242.2661-3.638 308.8201.105 3.396 1.5 6.625 3.901 9.029s5.627 3.804 9.023 3.914c34.873 1.139 135.192 4.021 192.233 1.641 5.721-.235 11.138-2.643 15.147-6.732 4.009-4.09 6.307-9.554 6.427-15.28 1.188-57.15 3.801-217.895-2.413-291.5324-.36-4.2742-2.205-8.2875-5.215-11.3435s-6.995-4.9619-11.263-5.3869c-37.981-3.7986-138.841-13.0874-188.131-9.8893-4.288.2827-8.315 2.1592-11.289 5.2607s-4.68 7.2035-4.782 11.4993z" fill="#c4cdd5"/><path d="m215.798 57.1664c-1.906 44.5916-7.913 192.9436-6.007 247.8016.131 3.867 1.701 7.545 4.403 10.315 2.703 2.769 6.342 4.429 10.204 4.654 32.973 1.93 117.561 6.185 165.937 2.311 4.211-.34 8.155-2.196 11.1-5.225 2.946-3.028 4.692-7.022 4.915-11.24 2.45-45.495 9.487-183.63 7.659-237.8723-.145-4.1807-1.812-8.1645-4.688-11.2021s-6.763-4.9197-10.93-5.2924c-35.675-3.2169-127.3-10.8248-168.404-8.5784-3.721.2007-7.236 1.7788-9.858 4.4272-2.623 2.6484-4.166 6.1777-4.331 9.9014z" fill="#dfe3e8"/><path d="m287.825 32.9995c-.002.8042.305 1.5785.858 2.1625.553.5839 1.309.9327 2.112.974 8.235.4316 31.44 1.6513 41.82 2.2545.477.0262.954-.0571 1.395-.2435.44-.1864.833-.471 1.146-.832.314-.361.541-.789.664-1.2512s.139-.9464.046-1.4156c-.071-.7358-.395-1.4242-.916-1.9481-.522-.524-1.209-.851-1.944-.9257-7.01-.6434-28.148-2.4126-42.176-1.9248-.812.0327-1.579.3795-2.14.9673-.56.5877-.871 1.3703-.865 2.1826z" fill="#dfe3e8"/><path d="m222.667 67.9081c2.089 27.1746 7.664 114.6739 9.249 139.6499.116 1.827.918 3.542 2.245 4.802 1.328 1.26 3.082 1.973 4.912 1.994l149.604 1.761c1.873.022 3.681-.681 5.047-1.962s2.184-3.041 2.282-4.911l7.16-135.3773c.051-.9605-.09-1.9215-.414-2.8271s-.825-1.7377-1.474-2.4481c-.648-.7103-1.431-1.2847-2.304-1.6898-.872-.405-1.816-.6327-2.777-.6698l-166.026-6.1147c-1.022-.0405-2.04.1356-2.988.5169-.948.3812-1.805.959-2.513 1.6951-.709.7362-1.254 1.6141-1.599 2.576s-.483 1.986-.404 3.0049z" fill="#637381" opacity=".32"/><g clip-rule="evenodd" fill="#637381" fill-rule="evenodd" opacity=".32"><path d="m327.774 277.311c.105 25.416-39.292 24.569-40.23.555 1.115-24.615 39.6-26.883 40.23-.555zm-17.183 9.262v-16.289c-.025-1.911 1.852-2.779 3.543-2.549.343 0 .682.069.997.203s.6.33.837.577c.238.246.424.538.546.858.123.319.179.66.167 1.003l-.59 16.293c-.064 3.321-5.557 3.222-5.5-.096zm-5.496 2.538c-1.34.086-2.517-1.316-2.519-2.281-.019-.195-.436-4.086-.857-8.008l-.002-.021c-.436-4.065-.875-8.157-.876-8.195-.121-2.665 2.458-3.003 4.533-2.603 1.341.048 2.383 1.563 2.284 2.538v16.085c-.016.667-.294 1.302-.773 1.767-.479.464-1.122.722-1.79.718z"/><path d="m368.18 277.31c.078 19.369-29.944 18.723-30.657.424.85-18.757 30.177-20.489 30.657-.424zm-20.679 6.727v-13.023c-.038-2.812 5.015-2.753 4.871.072l-.469 13.029c-.015.29-.091.574-.222.834s-.315.489-.539.674c-.225.184-.486.319-.767.397-.28.078-.573.096-.861.054-.536-.006-1.048-.224-1.425-.605s-.588-.896-.588-1.432zm7.142.174.692-13.634c.007-.221.081-.434.212-.612s.312-.311.521-.384c.208-.072.434-.079.647-.021.213.059.403.18.545.349l5.897 6.849c.179.207.274.473.266.746s-.118.533-.309.729l-6.594 6.782c-.154.16-.353.269-.57.313s-.443.021-.646-.066c-.204-.088-.377-.235-.495-.423-.117-.188-.175-.407-.166-.628z"/><path d="m249.602 277.31c-.078 19.369 29.941 18.723 30.657.424-.85-18.757-30.177-20.489-30.657-.424zm20.677-6.297v13.023c0 .536-.21 1.05-.587 1.432-.376.381-.887.599-1.423.606-.288.042-.581.024-.862-.054-.28-.078-.541-.213-.766-.398-.225-.184-.408-.414-.539-.674-.131-.259-.207-.543-.222-.834l-.469-13.028c-.142-2.826 4.909-2.885 4.868-.073zm-7.144 13.198-.691-13.635c-.009-.219-.083-.432-.215-.608-.131-.177-.312-.31-.52-.382s-.432-.08-.645-.023c-.212.058-.402.179-.545.346l-5.898 6.849c-.178.207-.273.473-.265.746s.118.533.308.729l6.595 6.782c.154.16.352.269.57.313.217.044.442.021.646-.067.204-.087.376-.234.494-.422s.176-.407.166-.628z"/></g><path d="m221.931 239.665c0 2.024.737 4.483 3.19 4.426h164.061c.804.001 1.575-.317 2.145-.885.569-.567.89-1.337.892-2.141 0-.799-.315-1.566-.877-2.135-.562-.568-1.326-.891-2.125-.9l-164.233-1.694c-.426-.004-.848.081-1.239.251-.39.169-.741.419-1.029.733s-.507.685-.642 1.089-.184.832-.143 1.256z" fill="#f4f6f8"/><path d="m326.928 242.15c-.193-1.576-.429-3.173-.655-4.777l-101.288-1.045c-2.783 0-3.429 2.772-2.882 5.032.074.748.425 1.443.982 1.947.558.505 1.284.785 2.036.784h102.088c-.107-.681-.209-1.335-.281-1.941z" fill="#637381" opacity=".32"/><path d="m333.216 240.577c-.124 7.214-10.855 7.214-10.991 0 .147-7.217 10.881-7.214 10.991 0z" fill="#f9fafb"/><path d="m543.255 217.981-141.125-12.524c-2.762-.246-5.333-1.513-7.21-3.554-1.877-2.042-2.925-4.71-2.939-7.483l-.52-95.1525c-.008-1.5322.3-3.0495.905-4.457.605-1.4076 1.495-2.6752 2.612-3.7234 1.117-1.0483 2.439-1.8546 3.883-2.3687 1.443-.5141 2.977-.7247 4.505-.6189l150.274 10.4549c1.476.1032 2.917.4996 4.238 1.1659 1.321.6667 2.496 1.5897 3.457 2.7147.96 1.126 1.686 2.431 2.136 3.841s.615 2.895.485 4.369l-8.627 97.219c-.128 1.457-.542 2.875-1.218 4.172s-1.602 2.449-2.723 3.388c-1.121.94-2.416 1.649-3.812 2.088-1.395.439-2.864.598-4.321.469z" fill="#77f0ed"/><path clip-rule="evenodd" d="m398.805 190.643.933-82.157c.011-.929.21-1.845.585-2.695s.918-1.616 1.596-2.25c.678-.635 1.477-1.126 2.35-1.444s1.801-.456 2.728-.406l142.187 7.75c.922.05 1.825.285 2.654.692.83.406 1.569.976 2.174 1.674s1.064 1.51 1.348 2.389c.285.879.389 1.806.308 2.727l-7.795 87.847c-.081.907-.341 1.788-.765 2.594s-1.003 1.519-1.704 2.099c-.701.581-1.511 1.016-2.381 1.282-.871.266-1.785.356-2.691.266l-135.321-13.439c-1.713-.17-3.301-.976-4.45-2.258-1.148-1.283-1.775-2.949-1.756-4.671zm65.084-10.378 76.583 4.504c1.429.067 1.399 1.697 1.198 2.745-.032.365-.207.703-.486.941-.28.237-.641.355-1.007.327l-76.473-5.723c-1.772-.116-1.622-2.928.185-2.794zm-2.041 7.672c-.199.909.177 1.957 1.22 2.038l76.382 6.777c.182.018.367-.001.543-.054.176-.054.339-.142.481-.259.141-.117.258-.261.344-.424.085-.162.138-.34.154-.523.199-.906-.174-1.955-1.219-2.035l-76.393-6.785c-.368-.032-.734.083-1.018.32-.283.238-.461.577-.494.945zm22.568 9.495c-.039-.198-.037-.403.008-.6.033-.365.207-.702.486-.939.279-.238.64-.356 1.005-.329l53.271 3.871c1.381.08 1.365 1.571 1.193 2.595-.016.182-.068.36-.153.522-.084.162-.2.306-.341.424-.14.117-.302.206-.477.261-.174.055-.358.075-.541.058l-53.199-4.72c-.201-.022-.395-.086-.57-.188s-.326-.24-.443-.404c-.118-.165-.199-.353-.239-.551z" fill="#22b8cf" fill-rule="evenodd" opacity=".48"/><path d="m531.426 183.987-166.548-3.389c-3.259-.066-6.375-1.345-8.74-3.588-2.365-2.242-3.809-5.286-4.048-8.537l-8.229-111.5746c-.133-1.7966.107-3.6012.704-5.3009s1.539-3.2578 2.766-4.5769c1.227-1.319 2.713-2.3706 4.365-3.089 1.652-.7183 3.434-1.0879 5.236-1.0856l177.111.2332c1.739.0025 3.461.3518 5.065 1.0274 1.603.6756 3.056 1.664 4.273 2.9075 1.217 1.2434 2.174 2.7169 2.815 4.3345.641 1.6175.953 3.3465.918 5.0861l-2.335 114.7353c-.035 1.718-.409 3.413-1.099 4.987s-1.683 2.997-2.923 4.187-2.702 2.124-4.303 2.749-3.31.929-5.028.894z" fill="#77f0ed"/><path clip-rule="evenodd" d="m359.787 163.487-5.485-96.4474c-.062-1.0907.098-2.1825.469-3.2099.372-1.0273.947-1.9689 1.692-2.7681s1.644-1.4394 2.642-1.8821c.999-.4427 2.077-.6788 3.169-.6941l167.41-2.2947c1.086-.015 2.164.1889 3.17.5993 1.005.4105 1.918 1.0192 2.683 1.79.766.7707 1.368 1.6876 1.772 2.6961s.6 2.0879.578 3.174l-2.11 103.6719c-.022 1.07-.256 2.125-.688 3.104s-1.054 1.863-1.83 2.6c-.775.737-1.69 1.313-2.689 1.695-1 .381-2.066.561-3.136.528l-159.814-4.93c-2.024-.062-3.95-.881-5.4-2.293-1.45-1.413-2.318-3.318-2.433-5.339zm75.517-17.385 90.196-.86c1.692-.035 1.769 1.876 1.625 3.123-.008.431-.186.842-.494 1.143-.309.301-.724.468-1.155.465l-90.167-.59c-.217-.001-.432-.045-.632-.131-.2-.085-.381-.209-.532-.364-.152-.156-.271-.34-.351-.542s-.119-.418-.115-.635c.01-.427.184-.833.487-1.133.303-.301.711-.471 1.138-.476zm-1.78 9.179c-.16 1.072.362 2.278 1.593 2.289l90.142 1.836c.435.008.855-.157 1.168-.458.313-.302.494-.715.502-1.15.164-1.072-.359-2.281-1.592-2.292l-90.14-1.834c-.215-.004-.43.034-.631.112-.2.078-.384.196-.539.345-.156.15-.28.328-.366.526-.086.197-.133.41-.137.626zm27.234 9.33c-.063-.23-.076-.471-.04-.706.01-.431.189-.841.499-1.141.309-.3.725-.466 1.156-.462l62.801.268c1.624-.016 1.729 1.734 1.608 2.949-.009.434-.19.848-.504 1.149-.313.302-.733.467-1.168.459l-62.783-1.279c-.238-.008-.473-.066-.687-.171s-.403-.254-.555-.438-.264-.398-.327-.628z" fill="#22b8cf" fill-rule="evenodd" opacity=".48"/><path d="m506.845 156.389h-184.767c-3.615-.001-7.1-1.349-9.773-3.782-2.673-2.434-4.343-5.777-4.682-9.376l-11.645-123.5438c-.186-1.9888.041-3.9945.665-5.8917.625-1.8972 1.634-3.6451 2.965-5.13439s2.955-2.68792 4.771-3.52093c1.815-.833 3.783-1.28246 5.78-1.32027l196.409-3.7530233c1.93-.037067 3.848.3110263 5.641 1.0239233 1.794.71289 3.427 1.77627 4.805 3.12793 1.377 1.35166 2.472 2.96446 3.218 4.74406.747 1.7796 1.132 3.6903 1.131 5.6203v127.2949c-.002 3.849-1.532 7.54-4.255 10.261-2.722 2.721-6.414 4.25-10.263 4.25z" fill="#116e95"/><path clip-rule="evenodd" d="m307.788 30.6964 8.27 106.8326c.172 2.237 1.176 4.328 2.813 5.861 1.638 1.534 3.79 2.399 6.033 2.425l177.336 1.858c1.187.012 2.364-.211 3.464-.657s2.101-1.105 2.944-1.94c.844-.835 1.513-1.829 1.971-2.924.457-1.095.692-2.27.693-3.457v-115.0034c0-1.2048-.243-2.3973-.713-3.5064-.471-1.1092-1.16-2.1123-2.026-2.9498-.866-.8374-1.892-1.492-3.016-1.9247-1.125-.4327-2.325-.6348-3.529-.5942l-185.595 6.3266c-1.21.0413-2.399.3269-3.495.8395-1.097.5127-2.079 1.2418-2.886 2.1435-.808.9018-1.425 1.9575-1.814 3.1038s-.542 2.3595-.45 3.5665zm194.668-3.9673-99.991 2.9917c-.472.0153-.919.2136-1.247.5528s-.512.7928-.512 1.2648c0 .2407.048.479.141.7011s.229.4236.4.5927c.172.1691.375.3024.598.3923s.462.1346.703.1314l99.991-1.3806c.478-.0063.934-.2006 1.27-.5408.336-.3401.524-.7988.524-1.2767.126-1.386 0-3.5064-1.877-3.4287zm-99.939 15.6985c-1.365.0161-1.974-1.3029-1.818-2.5038 0-.2389.046-.4756.138-.6964.091-.2208.225-.4215.393-.5905.169-.1691.37-.3032.59-.3947.221-.0915.458-.1386.697-.1386h99.991c1.364-.0161 1.973 1.3028 1.817 2.5065 0 .482-.191.9443-.532 1.2851-.341.3409-.803.5324-1.285.5324zm28.545 6.4602c-.034.261-.013.5262.062.7784.076.2522.203.4857.375.6855.171.1997.382.3611.62.4738.238.1126.497.174.76.1801h69.651c.239.0003.475-.0464.696-.1377.221-.0912.421-.225.59-.3939.169-.1688.303-.3693.394-.59s.138-.4572.138-.696c.107-1.3403-.046-3.2865-1.847-3.2329l-69.649 1.1152c-.477.007-.932.2016-1.268.5417-.335.3401-.522.7984-.522 1.2758zm-13.999 81.9202c.05.05.118.078.189.078.32 0 .291-.44.27-.77-.008-.128-.016-.239-.001-.302 0-.071-.029-.139-.079-.19-.05-.05-.118-.078-.19-.078-.315-.012-.288.424-.268.758.008.132.016.248 0 .314 0 .071.029.14.079.19zm0-2.681c.05.05.118.079.189.079.32 0 .291-.441.27-.771-.008-.127-.016-.238-.001-.302 0-.071-.029-.139-.079-.189-.05-.051-.118-.079-.19-.079-.315-.011-.288.424-.268.758.008.132.016.248 0 .315 0 .071.029.139.079.189zm0-2.681c.05.051.118.079.189.079.32 0 .291-.44.27-.771-.008-.127-.016-.238-.001-.301 0-.072-.029-.14-.079-.19s-.118-.078-.19-.078c-.315-.012-.288.423-.268.757.008.132.016.248 0 .315 0 .071.029.139.079.189zm0-2.68c.05.05.118.078.189.078.32 0 .291-.44.27-.77-.008-.127-.016-.239-.001-.302 0-.071-.029-.139-.079-.19-.05-.05-.118-.078-.19-.078-.315-.012-.288.424-.268.758.008.131.016.247 0 .314 0 .071.029.139.079.19zm0-2.681c.05.05.118.078.189.078.32 0 .291-.44.27-.771v-.001c-.008-.126-.016-.237-.001-.3 0-.071-.029-.139-.079-.189-.05-.051-.118-.079-.19-.079-.315-.011-.288.424-.268.758.008.132.016.248 0 .314 0 .071.029.14.079.19zm0-2.681c.05.05.118.079.189.079.32 0 .291-.44.27-.771-.008-.127-.016-.238-.001-.302 0-.071-.029-.139-.079-.189s-.118-.079-.19-.079c-.315-.011-.288.424-.268.758.008.132.016.248 0 .315 0 .071.029.139.079.189zm0-2.681c.05.051.118.079.189.079.32 0 .291-.441.27-.771-.008-.127-.016-.238-.001-.301 0-.071-.029-.14-.079-.19s-.118-.078-.19-.078c-.315-.012-.288.423-.268.758.008.131.016.247 0 .314 0 .071.029.139.079.189zm0-2.68c.05.05.118.078.189.078.32 0 .291-.44.27-.771-.008-.127-.016-.238-.001-.301 0-.071-.029-.139-.079-.19-.05-.05-.118-.078-.19-.078-.315-.012-.288.424-.268.758.008.131.016.247 0 .314 0 .071.029.139.079.19zm0-2.681c.05.05.118.078.189.078.32 0 .291-.439.27-.77-.008-.127-.016-.238-.001-.302 0-.071-.029-.139-.079-.189-.05-.051-.118-.079-.19-.079-.315-.011-.288.424-.268.758.008.132.016.248 0 .314 0 .071.029.14.079.19zm0-2.681c.05.05.118.079.189.079.32 0 .291-.441.27-.771v-.002c-.008-.126-.016-.236-.001-.3 0-.071-.029-.139-.079-.189s-.118-.079-.19-.079c-.315-.011-.288.424-.268.758.008.132.016.248 0 .315 0 .071.029.139.079.189zm0-2.681c.05.051.118.079.189.079.32 0 .291-.441.27-.771v-.001c-.008-.127-.016-.237-.001-.3 0-.071-.029-.14-.079-.19s-.118-.078-.19-.078c-.315-.012-.288.423-.268.758.008.131.016.247 0 .314 0 .071.029.139.079.189zm31.401 28.363c-.072 0-.14-.028-.19-.078-.05-.051-.079-.119-.079-.19.013-.067.003-.183-.01-.314-.031-.333-.071-.768.246-.758.071 0 .14.028.19.078.05.051.078.119.078.19-.01.063.001.17.014.294.035.335.081.788-.249.778zm-.084-2.681c-.071 0-.139-.028-.189-.078s-.079-.119-.079-.19c.013-.067.002-.181-.01-.311-.031-.331-.071-.761.246-.761.071 0 .14.028.19.079.05.05.078.118.078.189-.01.063.001.169.014.292v.003c.035.335.081.787-.25.777zm-.083-2.68c-.071 0-.139-.029-.189-.079-.051-.05-.079-.118-.079-.189.013-.068.002-.183-.01-.314-.031-.334-.072-.768.246-.759.071 0 .139.029.19.079.05.05.078.118.078.189-.014.068-.002.185.012.318.034.334.078.767-.248.757zm-.083-2.681c-.071 0-.139-.028-.189-.079-.051-.05-.079-.118-.079-.189.013-.067.002-.182-.01-.311-.031-.331-.072-.761.246-.761s.303.43.292.761c-.004.129-.008.243.008.311.001.035-.006.07-.019.103-.013.032-.033.062-.057.087-.025.025-.054.045-.087.059-.008.004-.017.007-.026.01s-.018.005-.026.006c-.008.002-.016.003-.024.004-.009.001-.017.002-.026.002zm-.083-2.681c-.071 0-.139-.028-.189-.078-.051-.051-.079-.119-.079-.19.013-.067.002-.183-.01-.313-.031-.334-.072-.769.246-.759.318.009.303.434.292.762v.001c-.004.128-.008.241.008.309.001.036-.006.071-.019.104-.013.034-.032.064-.057.089-.012.012-.024.022-.037.031-.016.011-.033.021-.051.029-.033.013-.068.021-.104.021zm-.083-2.681c-.071 0-.139-.028-.19-.078-.05-.05-.078-.119-.078-.19.013-.067.002-.181-.01-.311-.031-.331-.072-.761.246-.761s.303.43.292.761c-.005.13-.008.244.008.311.001.036-.006.071-.019.105-.013.033-.033.063-.058.088-.016.017-.034.031-.054.043-.006.004-.012.007-.018.01-.005.003-.01.005-.015.007-.006.002-.011.004-.017.006-.01.004-.02.007-.03.009-.011.002-.021.004-.032.005-.006 0-.013.001-.019.001h-.006zm-.083-2.68c-.071 0-.139-.029-.19-.079-.05-.05-.078-.118-.078-.189.013-.068.002-.183-.01-.314-.031-.334-.072-.768.246-.759.071 0 .139.029.189.079.051.05.079.118.079.189-.01.065.001.174.014.298v.002c.034.338.081.791-.25.781zm-.083-2.681c-.071 0-.139-.028-.19-.079-.05-.05-.078-.118-.078-.189.013-.067.002-.182-.01-.311-.032-.331-.072-.761.246-.761.071 0 .139.028.189.078s.079.119.079.19c-.01.065.001.175.014.301.034.338.08.789-.25.779zm-.083-2.681c-.071 0-.14-.028-.19-.078-.05-.051-.078-.119-.078-.19.012-.067.002-.183-.011-.313-.031-.334-.071-.769.247-.759.071 0 .139.028.189.078.05.051.079.119.079.19-.011.065.001.175.013.301.035.339.081.792-.249.782zm-.083-2.68c-.071 0-.14-.029-.19-.079s-.078-.118-.078-.19c.012-.067.002-.181-.011-.311-.031-.331-.071-.761.246-.761.319 0 .304.43.292.762-.004.129-.008.243.009.31.001.037-.005.073-.018.106-.005.014-.011.027-.018.04-.006.01-.013.019-.02.028-.006.008-.012.016-.019.023-.01.01-.021.02-.032.029-.008.005-.016.01-.024.015-.005.003-.01.006-.015.009-.006.003-.011.005-.017.008-.034.014-.069.021-.105.021zm-.084-2.681c-.071 0-.139-.028-.189-.079-.05-.05-.079-.118-.079-.189.013-.067.002-.182-.01-.312-.031-.33-.071-.761.246-.761.318 0 .304.429.292.761-.004.129-.008.243.009.312.001.036-.004.072-.017.106-.013.035-.032.066-.057.092s-.055.047-.089.062c-.033.014-.069.021-.106.021zm-.083-2.681c-.071 0-.139-.028-.189-.078-.05-.051-.079-.119-.079-.19.013-.067.002-.182-.01-.311-.031-.331-.071-.761.246-.761.318 0 .304.43.292.761-.004.129-.008.243.008.311.002.036-.003.073-.016.107s-.032.065-.057.091c-.025.027-.055.048-.089.062-.005.002-.01.004-.016.006-.003.001-.006.002-.009.003-.002.001-.005.002-.008.002l-.011.003c-.004.001-.008.002-.012.003s-.008.001-.012.002c-.002 0-.004 0-.006.001l-.011.001h-.009-.012zm-.083-2.681c-.071 0-.139-.028-.189-.078-.051-.05-.079-.1186-.079-.1897.013-.0672.002-.1827-.01-.3136-.031-.3339-.072-.7684.246-.7587.318.0096.304.4347.292.7629-.004.1279-.008.241.008.3094.001.0134.001.0269-.001.0402v.0065c-.003.0204-.008.041-.015.06s-.016.036-.027.053c-.003.005-.007.01-.01.015-.003.003-.006.007-.008.01-.004.005-.008.009-.012.014-.006.006-.012.011-.018.017-.021.018-.045.033-.071.044l-.008.004-.009.003c-.006.002-.013.004-.02.006-.015.004-.031.007-.046.008h-.011l-.012.001zm-.083-2.6804c-.071 0-.139-.0283-.189-.0785-.051-.0503-.079-.1185-.079-.1896.013-.0672.002-.1816-.01-.3113-.031-.3308-.072-.761.246-.761.071 0 .139.0283.19.0785.05.0503.078.1185.078.1896-.01.0677.001.1799.014.3071.035.3413.08.791-.25.7813zm-.083-2.6807c-.071 0-.139-.0283-.189-.0786-.051-.0502-.079-.1184-.079-.1895.013-.0672.002-.1827-.01-.3136-.031-.3339-.072-.7683.246-.7587.071 0 .139.0282.189.0785.051.0503.079.1185.079.1896-.01.0677.001.18.014.3075.035.3419.08.7926-.25.7808zm-.083-2.6808c-.071 0-.139-.0282-.19-.0785-.05-.0503-.078-.1184-.078-.1895.013-.0673.002-.1817-.01-.3114-.031-.3308-.072-.7609.246-.7609s.303.4301.292.7613c-.005.1291-.008.2433.008.311.003.0367-.002.0736-.015.1083-.007.0204-.017.0399-.028.0579-.009.0126-.018.0245-.028.0356-.026.0269-.056.0483-.09.0629-.034.0147-.07.0222-.107.0221zm-.083-2.6807c-.071 0-.139-.0283-.19-.0785-.05-.0503-.078-.1185-.078-.1896.013-.0672.002-.1826-.01-.3136-.031-.3339-.072-.7683.246-.7587.318.0097.303.4344.292.7626-.005.128-.009.2413.008.3097.003.0359-.002.0719-.014.1059s-.03.0653-.054.0921c-.024.0267-.053.0484-.086.0637-.009.0045-.019.0084-.029.0117l-.008.0025-.007.0019c-.005.0014-.01.0026-.015.0037-.015.003-.029.0048-.044.0054zm-.083-2.6807c-.071 0-.14-.0283-.19-.0786-.05-.0502-.078-.1184-.078-.1895.013-.0672.002-.1817-.01-.3114-.032-.3308-.072-.7609.246-.7609s.303.4301.292.7613c-.005.1292-.009.2433.008.311.003.0369-.002.0741-.014.1092-.012.035-.031.0671-.057.0944-.025.0272-.055.0489-.089.0636-.034.0148-.071.0224-.108.0223zm-.083-2.6808c-.071 0-.14-.0282-.19-.0785s-.078-.1185-.078-.1896c.012-.0663.002-.1802-.011-.3097-.031-.3306-.071-.7625.247-.7625.318-.0251.303.415.292.7545-.005.1323-.009.2494.008.3177.003.037-.002.0742-.014.1092-.007.0209-.017.0408-.029.0592-.004.0063-.009.0124-.013.0183-.005.0058-.01.0115-.015.0169-.025.0272-.056.0489-.09.0637s-.07.0224-.107.0223zm-71.049 48.8101c-.019-.323-.023-.704.274-.694.071 0 .139.029.19.079.05.05.078.118.078.19-.015.062-.007.174.002.303l.003.038c.001.027.003.054.005.081 49.073-.259 116.885-.284 123.135.739l.205-.205-1.364-1.365h1.158l1.362 1.365-1.362 1.361h-1.158l.996-.994c-3.887-.101-26.076-.039-53.371.036h-.014c-41.676.116-95.25.264-113.76-.082.171 2.973.221 4.698.113 4.737-.093-.035-.318-1.763-.639-4.747-3.915-.078-6.117-.18-6.11-.311-.055-.048 2.134-.103 6.06-.162-2.074-19.523-7.825-87.5283-7.916-95.4715l-1.14 1.352-.1-1.1527 1.244-1.4744 1.475 1.2439.096 1.1527-1.362-1.1509c1.214 7.7992 7.092 75.9339 8.25 95.4929 8.567-.123 24.677-.259 43.65-.361zm.085-2.112c.05.05.118.078.189.078.324 0 .293-.439.27-.768-.009-.129-.017-.242-.002-.304 0-.071-.028-.139-.078-.19-.051-.05-.119-.078-.19-.078-.319-.012-.291.428-.269.763.008.129.015.243.001.309 0 .071.028.139.079.19zm0-2.681c.05.05.118.078.189.078.324 0 .293-.439.27-.769v-.001c-.005-.068-.009-.131-.01-.185-.001-.048.001-.088.008-.117 0-.071-.028-.139-.078-.189-.051-.051-.119-.079-.19-.079-.319-.012-.291.428-.269.763.008.13.015.243.001.309 0 .071.028.14.079.19zm0-2.681c.05.05.118.079.189.079.324 0 .293-.439.27-.769-.009-.129-.017-.241-.002-.304 0-.071-.028-.139-.078-.189-.051-.05-.119-.079-.19-.079-.319-.011-.291.429-.269.763.008.13.015.244.001.31 0 .071.028.139.079.189zm0-2.681c.05.051.118.079.189.079.324 0 .293-.439.27-.768-.009-.129-.017-.242-.002-.304 0-.071-.028-.14-.078-.19-.051-.05-.119-.078-.19-.078-.319-.012-.291.428-.269.763.008.129.015.243.001.309 0 .071.028.139.079.189zm0-2.68c.05.05.118.078.189.078.324 0 .293-.438.27-.768-.005-.066-.009-.128-.01-.181 0-.011 0-.021 0-.031 0-.015 0-.028.001-.041.001-.019.004-.037.007-.051 0-.071-.028-.139-.078-.19-.051-.05-.119-.078-.19-.078-.319-.012-.291.428-.269.763.008.13.015.243.001.309 0 .071.028.139.079.19zm0-2.681c.05.05.118.078.189.078.324 0 .293-.438.27-.768-.009-.129-.017-.241-.002-.304 0-.071-.028-.139-.078-.189-.051-.051-.119-.079-.19-.079-.319-.012-.291.428-.269.763.008.13.015.244.001.309 0 .071.028.14.079.19zm0-2.681c.05.05.118.079.189.079.324 0 .293-.44.27-.769-.009-.129-.017-.241-.002-.304 0-.071-.028-.139-.078-.189-.051-.05-.119-.079-.19-.079-.319-.011-.291.429-.269.764.008.129.015.243.001.309 0 .071.028.139.079.189zm0-2.681c.05.051.118.079.189.079.324 0 .293-.439.27-.769v-.001c-.009-.128-.017-.24-.002-.302 0-.071-.028-.14-.078-.19-.051-.05-.119-.078-.19-.078-.319-.012-.291.428-.269.763.008.129.015.243.001.309 0 .071.028.139.079.189zm0-2.68c.05.05.118.078.189.078.324 0 .293-.439.27-.769-.009-.128-.017-.241-.002-.303 0-.071-.028-.139-.078-.19-.051-.05-.119-.078-.19-.078-.319-.012-.291.428-.269.763.008.13.015.243.001.309 0 .071.028.139.079.19zm0-2.681c.05.05.118.079.189.079.324 0 .293-.439.27-.769-.009-.129-.017-.241-.002-.304 0-.071-.028-.139-.078-.189-.051-.051-.119-.079-.19-.079-.319-.011-.291.429-.269.763.008.13.015.244.001.309 0 .072.028.14.079.19zm0-2.681c.05.051.118.079.189.079.324 0 .293-.44.27-.769-.009-.129-.017-.241-.002-.304 0-.071-.028-.139-.078-.189-.051-.05-.119-.079-.19-.079-.319-.011-.291.429-.269.764.008.129.015.243.001.309 0 .071.028.139.079.189zm0-2.68c.05.05.118.078.189.078.324 0 .293-.439.27-.768-.009-.129-.017-.242-.002-.304 0-.071-.028-.14-.078-.19-.051-.05-.119-.078-.19-.078-.319-.012-.291.428-.269.763.008.129.015.243.001.309 0 .071.028.139.079.19zm0-2.6812c.05.0503.118.0785.189.0785.324 0 .293-.4389.27-.7684v-.001c-.009-.1284-.017-.2405-.002-.3029 0-.0711-.028-.1393-.078-.1895-.051-.0503-.119-.0786-.19-.0786-.319-.0116-.291.4285-.269.7633.008.1295.015.2432.001.309 0 .0711.028.1393.079.1896zm0-2.6807c.05.0502.118.0785.189.0785.324 0 .293-.4389.27-.7684-.009-.1289-.017-.2414-.002-.3039 0-.0711-.028-.1393-.078-.1896-.051-.0502-.119-.0785-.19-.0785-.319-.0116-.291.4284-.269.7632.008.1295.015.2433.001.3091 0 .0711.028.1393.079.1896zm0-2.6808c.05.0503.118.0785.189.0785.324 0 .293-.4388.27-.7683-.009-.1289-.017-.2414-.002-.304 0-.0711-.028-.1392-.078-.1895-.051-.0503-.119-.0785-.19-.0785-.319-.0116-.291.4284-.269.7632.008.1295.015.2433.001.3091 0 .0711.028.1393.079.1895zm0-2.6807c.05.0503.118.0785.189.0785.324 0 .293-.4386.27-.7681v-.0012c-.009-.1285-.017-.2406-.002-.303 0-.0711-.028-.1393-.078-.1895-.051-.0503-.119-.0786-.19-.0786-.319-.0116-.291.4284-.269.7633.008.1295.015.2432.001.309 0 .0711.028.1393.079.1896zm0-2.6807c.05.0502.118.0785.189.0785.324 0 .293-.4386.27-.7682-.009-.129-.017-.2415-.002-.3041 0-.0711-.028-.1393-.078-.1896-.051-.0502-.119-.0785-.19-.0785-.319-.0116-.291.4284-.269.7632.008.1295.015.2433.001.3091 0 .0711.028.1393.079.1896zm0-2.6808c.05.0503.118.0785.189.0785.324 0 .293-.4386.27-.7681-.009-.129-.017-.2415-.002-.3042 0-.0711-.028-.1392-.078-.1895-.051-.0503-.119-.0785-.19-.0785-.319-.0116-.291.4284-.269.7632.008.1295.015.2433.001.3091 0 .0711.028.1392.079.1895zm0-2.6807c.05.0503.118.0785.189.0785.324 0 .293-.4389.27-.7684-.009-.1289-.017-.2413-.002-.3039 0-.0711-.028-.1393-.078-.1895-.051-.0503-.119-.0786-.19-.0786-.319-.0116-.291.4284-.269.7632.008.1296.015.2433.001.3091 0 .0711.028.1393.079.1896zm0-2.6807c.05.0502.118.0785.189.0785.324 0 .293-.4392.27-.7687v-.001c-.009-.1284-.017-.2403-.002-.3026 0-.0711-.028-.1393-.078-.1896-.051-.0502-.119-.0785-.19-.0785-.319-.0116-.291.4284-.269.7632.008.1295.015.2433.001.3091 0 .0711.028.1393.079.1896zm0-2.6808c.05.0503.118.0785.189.0785.324 0 .293-.4391.27-.7686v-.001c-.009-.1283-.017-.2403-.002-.3026 0-.0711-.028-.1393-.078-.1896-.051-.0503-.119-.0785-.19-.0785-.319-.0116-.291.4284-.269.7632.008.1295.015.2433.001.3091 0 .0711.028.1392.079.1895zm0-2.6807c.05.0503.118.0785.189.0785.324 0 .293-.4386.27-.7681v-.0012c-.009-.1285-.017-.2406-.002-.303 0-.0711-.028-.1393-.078-.1895-.051-.0503-.119-.0786-.19-.0786-.319-.0116-.291.4284-.269.7632.008.1296.015.2433.001.3091 0 .0711.028.1393.079.1896zm0-2.6807c.05.0502.118.0785.189.0785.324 0 .293-.4389.27-.7684-.009-.1289-.017-.2414-.002-.3039 0-.0711-.028-.1393-.078-.1896-.051-.0502-.119-.0785-.19-.0785-.319-.0116-.291.4284-.269.7632.008.1295.015.2433.001.3091 0 .0711.028.1393.079.1896zm0-2.6808c.05.0503.118.0785.189.0785.324 0 .293-.4393.27-.7688-.009-.1287-.017-.241-.002-.3034 0-.0711-.028-.1393-.078-.1896-.051-.0503-.119-.0785-.19-.0785-.319-.0116-.291.4284-.269.7632.008.1295.015.2433.001.3091 0 .0711.028.1392.079.1895zm0-2.6807c.05.0503.118.0785.189.0785.324 0 .293-.4386.27-.7681-.009-.129-.017-.2416-.002-.3042 0-.0711-.028-.1393-.078-.1895-.051-.0503-.119-.0786-.19-.0786-.319-.0116-.291.4284-.269.7632.008.1296.015.2433.001.3091 0 .0711.028.1393.079.1896zm0-2.6807c.05.0502.118.0785.189.0785.324 0 .293-.4386.27-.7681v-.0021c-.009-.1281-.017-.2399-.002-.3021 0-.0711-.028-.1393-.078-.1896-.051-.0502-.119-.0785-.19-.0785-.319-.0116-.291.4284-.269.7632.008.1295.015.2433.001.3091 0 .0711.028.1393.079.1896zm0-2.6808c.05.0503.118.0785.189.0785.324 0 .293-.4391.27-.7686-.009-.1288-.017-.2411-.002-.3037 0-.071-.028-.1392-.078-.1895-.051-.0503-.119-.0785-.19-.0785-.319-.0116-.291.4284-.269.7632.008.1295.015.2433.001.3091 0 .0711.028.1393.079.1895zm101.82 42.2885c-.183.063-12.124-9.692-21.008-16.9505l-.003-.0021-.019-.0156c-5.222-4.266-9.383-7.6654-9.471-7.6942l-29.831 21.8584c-.507.458-16.833-19.4002-28.97-34.1626-7.117-8.6573-12.794-15.562-12.994-15.5888-3.485 3.0694-35.231 30.8928-39.34 34.4849-.373.3405-.938-.268-.536-.6031 1.855-1.5542 8.311-7.2482 15.508-13.5965l.003-.0024.003-.0032.007-.0058.016-.0143c11.071-9.7646 23.883-21.065 24.406-21.2273.264-.0872 15.774 18.6405 27.804 33.1662l.002.0024c7.588 9.1631 13.791 16.6536 13.909 16.693.176.0049 4.267-3.052 9.388-6.8785l.002-.0011.001-.0008.003-.0021c8.757-6.5434 20.522-15.334 20.874-14.9146l30.238 24.5316 16.294-14.2402c.04-.0352.086-.0623.136-.0795.051-.0174.104-.0246.157-.0214.053.0033.105.0169.152.0402.048.0233.091.0557.126.0955s.062.0861.079.1364c.018.0502.025.1033.022.1563-.003.0531-.017.1049-.04.1527-.024.0477-.056.0904-.096.1256-.121.051-2.528 2.1775-5.486 4.7904l-.005.0038v.0007c-4.816 4.2544-11.088 9.7955-11.331 9.7665zm.203 26.666c.05.05.119.078.19.078.319.012.291-.428.269-.763-.008-.13-.015-.243-.001-.309 0-.071-.028-.139-.079-.19-.05-.05-.118-.078-.189-.078-.316-.014-.289.421-.268.756.008.132.015.249 0 .316 0 .071.028.139.078.19zm0-2.681c.05.05.119.078.19.078.319.012.291-.428.269-.763-.008-.129-.015-.243-.001-.309 0-.071-.028-.139-.079-.189-.05-.051-.118-.079-.189-.079-.316-.013-.289.421-.268.756.008.132.015.249 0 .316 0 .071.028.14.078.19zm0-2.681c.05.05.119.079.19.079.319.011.291-.429.269-.764-.008-.129-.015-.243-.001-.309 0-.071-.028-.139-.079-.189-.05-.05-.118-.079-.189-.079-.316-.013-.289.421-.268.756.008.132.015.249 0 .317 0 .071.028.139.078.189zm0-2.681c.05.051.119.079.19.079.319.012.291-.429.269-.763-.008-.13-.015-.244-.001-.309 0-.071-.028-.14-.079-.19-.05-.05-.118-.078-.189-.078-.316-.014-.289.421-.268.756.008.132.015.248 0 .316 0 .071.028.139.078.189zm0-2.68c.05.05.119.078.19.078.319.012.291-.428.269-.763-.008-.13-.015-.243-.001-.309 0-.071-.028-.139-.079-.19-.05-.05-.118-.078-.189-.078-.316-.014-.289.421-.268.756.008.132.015.249 0 .316 0 .071.028.139.078.19zm0-2.681c.05.05.119.078.19.078.319.012.291-.428.269-.763-.008-.129-.015-.243-.001-.309 0-.071-.028-.139-.079-.189-.05-.051-.118-.079-.189-.079-.316-.013-.289.421-.268.756.008.132.015.249 0 .316 0 .071.028.14.078.19zm0-2.681c.05.05.119.079.19.079.319.011.291-.429.269-.764-.008-.129-.015-.243-.001-.309 0-.071-.028-.139-.079-.189-.05-.05-.118-.079-.189-.079-.316-.013-.289.421-.268.756.008.133.015.249 0 .317 0 .071.028.139.078.189zm0-2.681c.05.051.119.079.19.079.319.012.291-.428.269-.763-.008-.13-.015-.244-.001-.309 0-.071-.028-.14-.079-.19-.05-.05-.118-.078-.189-.078-.316-.014-.289.421-.268.756.008.132.015.248 0 .316 0 .071.028.139.078.189zm0-2.68c.05.05.119.078.19.078.319.012.291-.428.269-.763-.008-.13-.015-.243-.001-.309 0-.071-.028-.139-.079-.19-.05-.05-.118-.078-.189-.078-.316-.014-.289.421-.268.756.008.132.015.249 0 .316 0 .071.028.139.078.19zm0-2.681c.05.05.119.079.19.079.319.011.291-.429.269-.764-.008-.129-.015-.243-.001-.309 0-.071-.028-.139-.079-.189-.05-.051-.118-.079-.189-.079-.316-.013-.289.421-.268.756.008.132.015.249 0 .316 0 .072.028.14.078.19z" fill="#77f0ed" fill-rule="evenodd" opacity=".72"/><path d="m295.287 332.07c-1.482-8.339-12.766-14.133-12.653-14.028l-4.158.327c-2.412 7.56-2.115 11.86-1.656 14.103 3.428.306 10.489.507 18.467-.402z" fill="#003471"/><path d="m276.819 332.478c1.585 3.568 15.307 1.091 17.211 1.107.354-.062.675-.247.906-.524.23-.276.354-.625.351-.985-7.978.903-15.039.702-18.468.402z" fill="#003471"/><path d="m337.431 61.8929 27.392-9.9429 2.109 4.4232-26.33 9.9188s-3.662-.3244-3.171-4.3991z" fill="#063963"/><path d="m364.824 51.9501c-.804 2.4449 2.11 4.4233 2.11 4.4233l4.97-3.5172c-.245-.6261-.424-1.2755-.536-1.9382z" fill="#fdbab9"/><path d="m371.378 50.9178c.112.6626.292 1.3121.536 1.9382l3.67-2.5977z" fill="#116e95"/><path d="m260.354 183.676c-2.568 2.742-6.35 5.109-9.012 6.589 3.975 4.911 9.353 9.83 16.47 14.645l2.038 4.573 6.535-7.825s-11.72-5.828-16.031-17.982z" fill="#fdbab9"/><path d="m276.804 312.174 1.761 8.479c.05.292.192.56.405.765s.487.336.78.374c1.367.153 4.495.327 4.109-2.091l-1.225-7.527z" fill="#fdbab9"/><path d="m313.297 332.387c-4.592-.129-6.97-.67-8.195-1.172.029.775-.268 2.282.879 2.325l25.218-.164c.804 0 1.276-.938.925-1.675-3.306.273-11.726.884-18.827.686z" fill="#063963"/><path d="m332.124 331.701c-1.523-3.601-14.136-13.567-24.583-12.356 0 0-2.396 4.161-2.439 11.87 5.388 2.226 23.129.781 27.022.486z" fill="#063963"/><path d="m306.546 311.196c.059.402.804 6.492 1.072 8.846.504 1.828 2.949 1.072 4.681 1 .353-.088.666-.294.885-.584.22-.29.333-.647.321-1.011v-9.562z" fill="#fdbab9"/><path d="m302.229 200.028s12.97 49.288 12.737 111.31c-.005.548-.196 1.079-.542 1.505-.347.425-.828.72-1.364.835-1.63.343-4.021.75-6.011.694-.514-.017-1.006-.212-1.393-.551-.388-.339-.645-.802-.73-1.309-1.82-10.664-12.253-70.739-18.199-80.492 0 0-3.914 53.505-2.662 81.264.015.333-.096.659-.311.913-.216.254-.519.417-.85.457-1.029-.051-5.898 1.024-6.396-1.51-1.295-9.023-8.75-62.745-8.434-101.444.019-2.182 5.772-11.672 5.772-11.672z" fill="#212b36"/><path d="m344.638 93.8925c-12.144 29.7345-55.923 27.1425-80.443 31.5795-14.94 3.485-34.343 40.087-12.854 64.793 2.662-1.48 6.433-3.847 9.012-6.589-2.303-6.485-2.49-14.774 2.332-24.931 7.386 20.786 6.574 41.851 8.437 46.245 5.493 2.726 33.836 3.013 32.825-1.579-2.772-20.105 11.463-53.156 15.224-61.437.549-1.211 1.519-2.181 2.729-2.732 21.502-9.731 30.85-24.708 34.638-38.192-3.276-4.4017-8.356-6.3238-11.9-7.1575z" fill="#fdab76"/><path d="m356.536 101.05c4.592-16.352 1.022-30.517 1.022-30.517h-4.901s-1.675 11.5459-8.023 23.3626c3.546.831 8.626 2.7531 11.902 7.1544z" fill="#fdbab9"/><path d="m354.395 73.141c-5.992-7.3613-9.997-19.5855 5.696-19.2343l1.166 3.9434c1.166 2.284-4.19 13.0149-4.707 15.2802z" fill="#fdbab9"/><path d="m279.312 106.138-1.686 17.224s9.688 2.919 16.736-2.053l-4.954-15.653z" fill="#fdbab9"/><path d="m290.554 86.5101c.233.2198 9.841 19.0869 9.841 19.0869l-10.876 5.257-11.763-16.5296s8.895-11.4896 12.798-7.8143z" fill="#fdbab9"/><path d="m282.549 94.7824c-.097.2473-.135.5135-.113.778.023.2645.106.5203.244.7474l5.431 9.0532c.08.138.181.263.298.372 4.128 4.053 5.841-3.485 8.846-4.672.205-.104.427-.167.656-.185.229-.017.459.011.677.083.217.071.419.186.592.336.174.15.316.333.418.538.065.734 5.898 10.136 2.71 10.937-1.265.268-10.141 4.517-12.063 2.346-1.662-2.279-6.353-8.651-7.954-10.243-2.182-2.145-4.889.018-6.854-.751-5.287-3.383.718-5.9297-1.979-8.1842-4.825-2.9649-.174-9.4281 4.394-8.3237 1.667.2869 1.549-1.3913 2.788-1.7612 3.169-.9865-.866-4.6136 3.85-7.0772 4.699-2.5815 8.814 1.6273 9.862 5.1792 1.048 3.552-4.209 6.0665-7.506 6.4847-2.421.3083-3.761 2.9569-4.297 4.3428z" fill="#770508"/><path d="m284.347 108.197s-2.088-6.115-4.763-5.897c-8.482 2.01 2.383 11.181 4.763 5.897z" fill="#fdbab9"/><path d="m261.802 157.158c-3.525-9.651-2.247-21.296-2.233-21.414l.97.113c0 .113-1.262 11.541 2.182 20.966z" fill="#fa541c" opacity=".24"/><path d="m286.248 230.763c-.108 0-.213-.036-.299-.102-.086-.065-.147-.158-.175-.263-1.204-4.825-9.935-8.371-9.383-9.417.716-.925 8.916 4.632 10.345 9.171.019.073.02.15.004.224s-.048.143-.096.203c-.047.059-.107.106-.176.138s-.144.048-.22.046z" fill="#161c24"/><path d="m544.41 264.347s12.514 6.933 13.549 18.664c1.035 11.73.085 60.426-25.006 72.412-29.815 12.259-85.213 16.435-92.359-7.984-1.574-5.954-4.118-28.113 9.256-35.262 26.874-10.964 63.483-59.834 94.56-47.83z" fill="#fdab76"/><path d="m453.794 316.222s3.378.177 3.794 7.125c0 0-7.834 7.021-18.412 8.691-.804.126 1.11-5.42 1.397-6.166 1.362-3.581 5.654-5.884 13.221-9.65z" fill="#212b36"/><path d="m491.831 308.051h-7.128s-21.875-24.159-36.219-26.596c0 0-9.989 12.747.536 36.568 1.035 2.587 5.024 2.949 6.115.285l-.845-20.339s18.658 16.32 21.902 19.47 19.725 1.228 15.639-9.388z" fill="#212b36"/><path d="m422.931 358.773c2.986-2.616 7.744-5.554 14.615-6.396l2.321 1.421c-1.207 1.662-2.614 3.171-4.187 4.493-2.678 1.53-13.747 7.64-12.749.482z" fill="#212b36"/><path d="m440.574 325.867c1.839.595 2.649 3.201 7.319 1.477 3.409-1.254 6.638-2.953 9.602-5.053.038.338.07.689.094 1.072 0 0-8.259 7.855-18.838 9.525-2.972-.142.596-4.9 1.823-7.021z" fill="#fdab76"/><path d="m420.679 361.009c.701-.793 1.452-1.54 2.249-2.236-.994 7.158 10.067 1.049 12.75-.482-3.118 2.659-7.86 5.482-13.846 5.316-.298-.006-.589-.097-.837-.262-.249-.165-.445-.397-.566-.67s-.162-.574-.118-.869c.045-.296.172-.572.368-.797z" fill="#fdab76"/><path d="m491.572 313.209-33.375.359s-19.06 15.771-22.519 39.817c0 0-.573 1.767 2.871 2.07 16.889-8.496 19.495-39.158 46.503-29.805 5.997-4.321 14.476-5.203 20.856-6.643z" fill="#212b36"/><path d="m490.785 286.321s-3.595 18.007-21.196 25.132l-6.263-.74-1.479 2.356 14.69.47s12.554-4.973 19.208-18.524c.219-.448 3.884-8.013-4.96-8.694z" fill="#fdbab9"/><path d="m488.861 312.909s4.085-11.107 4.962-21.899c0 0-2.989-2.569-4.858-3.676-.293-.171-.511-.447-.61-.772-.099-.324-.073-.675.074-.981 1.375-2.844 9.68-14.018 10.305-14.173 29.555-10.27 40.795 16.403 7.168 47.594l-3.925.75z" fill="#fa541c"/><path d="m504.599 293.449s-11.35 13.441-25.863 15.406c-6.236-5.938-10.187.711-13.152 4.41 15.28-1.34 27.309 4.895 45.058-11.305-.708-3.739-2.831-5.972-6.043-8.511z" fill="#fdbab9"/><path d="m511.215 261.975c-.059.699 3.375 8.991 2.129 9.299-1.196.804-4.322 2.447-8.608.863-.241-.089-.45-.246-.604-.452-.154-.205-.246-.45-.265-.706l-.59-7.216z" fill="#ff928e"/><path d="m500.761 248.169s-4.468 7.433-3.573 11.562c.895 4.128 7.133 6.64 12.902 2.986l3.625-11.315z" fill="#fdbab9"/><path d="m509.575 257.267c-.856-.413 1.198-2.63 1.158-3.916 0 0 .957-.676-2.571-1.341-3.528-.664-8.79-1.729-10.021-4.648-1.201-2.844 1.266-10.257 6.002-4.662.923.804 2.121-3.546 5.925-2.005 2.555 1.008 2.922 2.828 2.93 3.753.22 1.214 4.217-1.413 6.361 2.812 2.073 3.622-1.021 4.898.15 5.437.845.214 1.952.871 1.933 2.822-.024 2.703-3.045 2.603-3.908 2.52-1.271.724-3.802 4.558-7.774 5.188-.071.01-.143.003-.21-.021s-.126-.065-.174-.118c-.047-.054-.08-.118-.096-.187-.016-.07-.014-.142.005-.211l1.34-4.581c.175-.56-.747-.678-1.05-.842z" fill="#063963"/><path d="m508.978 257.935c6.565-4.718 4.766 3.906-1.113 2.056z" fill="#fdbab9"/><path d="m466.525 314.308-8.37-27.901c-.166-.556-.497-1.048-.951-1.411-.453-.362-1.006-.577-1.585-.616l-11.296-.775c-.263-.014-.526.037-.765.148-.239.11-.447.278-.606.489-.159.21-.263.456-.305.716-.041.26-.018.527.067.776 1.059 1.147 8.672 29.257 11.329 28.204l11.125 1.236z" fill="#116e95"/><path d="m465.153 315.173s23.738-1.203 23.757-1.198c.281-.017.544-.143.732-.351.189-.209.288-.483.276-.764 1.306-2.351-24.464.678-24.816.19-1.335.043-1.292 2.147.051 2.123z" fill="#116e95"/><path d="m451.089 295.862c1.445 2.978 4.051 1.686 2.558-1.266-1.442-2.975-4.051-1.686-2.558 1.266z" fill="#22b8cf"/><path d="m493.822 291.149c-.321-4.89 1.665-11.835 1.96-11.908.034.01.063.033.08.064.017.032.021.068.011.102-.155-.008-1.745 7.08-2.051 11.742z" fill="#b3200e" opacity=".24"/><path d="m504.601 293.583c-.025 0-.05-.007-.071-.021-.021-.013-.038-.032-.049-.055s-.015-.048-.012-.073c.002-.025.012-.048.028-.068.163.027 5.187-7.056 7.147-11.168-1.352 4.495-6.936 11.318-7.043 11.385z" fill="#b3200e" opacity=".24"/><path d="m511.914 303.647-.924-1.306c-.057-.804.943.938 1.018.973 7.597-3.294 11.645-12.082 12.098-12.122.274.375-4.71 9.139-12.192 12.455z" fill="#b3200e" opacity=".24"/><path d="m58.0586 318.394c-.6675-.137-1.8202-.866-1.2814-1.662.058-.083.1319-.154.2174-.208s.1809-.091.2807-.108c.0997-.017.2019-.014.3005.009.0985.023.1916.065.2737.124.8766.322 1.5066 1.67.2091 1.845zm-2.6083-1.877c-.6729-.134-1.8149-.946-1.2412-1.718.9597-1.142 3.1177 1.469 1.2412 1.715zm-2.5226-1.994c-.6809-.129-1.8095-1.019-1.201-1.77.1306-.153.3166-.249.5174-.266.2009-.017.4003.046.5549.175.815.392 1.3887 1.702.1287 1.855zm-2.4368-2.099c-.6889-.124-1.8014-1.097-1.1554-1.821.1369-.147.3261-.234.5268-.242.2007-.009.3967.062.5455.197.7774.423 1.3297 1.718.0831 1.863zm-2.3456-2.196c-.697-.115-1.7881-1.171-1.1098-1.876.1429-.141.3355-.22.5361-.22s.3932.079.5362.22c.7425.455 1.2599 1.731.0375 1.876zm-2.2492-2.3c-.7077-.107-1.7746-1.244-1.0722-1.914 1.0615-.922 2.7986 1.748 1.0722 1.906zm-2.1445-2.391c-.7185-.102-1.7559-1.319-1.0134-1.96 1.0643-.855 2.6969 1.826 1.008 1.952zm-2.0454-2.483c-.7319-.093-1.7372-1.391-.9624-2.002 1.0749-.81 2.6056 1.871.957 1.994zm-1.9382-2.568c-.7479-.083-1.713-1.463-.9088-2.04 1.083-.753 2.5145 1.928.9034 2.032zm-1.8283-2.648c-.7613-.075-1.6862-1.536-.8524-2.081 1.1044-.697 2.4207 1.984.8471 2.073zm-1.7103-2.727c-.7801-.064-1.6567-1.608-.8042-2.115 1.1232-.64 2.3349 2.032.7989 2.107zm312.4586-.49c-.62.019-1.566.08-1.568-.778.002-.202.085-.395.23-.537.144-.141.339-.22.542-.219.616-.016 1.554-.077 1.557.775-.003.201-.085.393-.229.533-.143.141-.337.219-.538.218zm2.412 0c-.201.001-.395-.079-.538-.22-.143-.142-.224-.335-.226-.536 0-.858.949-.804 1.569-.778.2 0 .393.08.535.221.143.141.224.332.226.533-.005.839-.954.785-1.571.769zm-5.629-.046c-.622 0-1.579.059-1.566-.804.003-.1.026-.199.067-.291.041-.091.099-.174.172-.243s.159-.123.253-.159c.094-.035.193-.052.294-.05.616 0 1.555-.05 1.544.805-.008.198-.093.385-.237.521-.143.137-.334.212-.533.211zm8.846 0c-.198 0-.389-.078-.532-.217-.142-.138-.225-.327-.232-.525 0-.853.925-.805 1.542-.805.1-.003.2.013.294.048s.18.089.253.157c.073.069.132.151.174.242.041.092.064.19.067.291.008.844-.955.793-1.574.79zm-12.063-.096c-.625 0-1.608.037-1.566-.834.005-.101.03-.199.073-.29s.104-.173.178-.24c.075-.068.163-.12.257-.154.095-.033.196-.048.297-.042.616 0 1.557-.025 1.53.828-.012.195-.099.377-.242.51s-.332.205-.527.203zm15.264-.024c-.962.016-1.003-1.496-.035-1.526.614-.053 1.547-.169 1.609.681.061.85-.947.815-1.574.826zm-18.476-.14c-.624-.016-1.608.016-1.562-.86.045-.877.994-.724 1.608-.662.962.01.914 1.522-.046 1.503zm21.685-.048c-1.517-.405-.619-1.801.745-1.579.2-.012.396.056.547.188.15.131.243.317.257.517.065.858-.914.834-1.549.855zm-24.891-.169c-.63-.027-1.608 0-1.563-.887.046-.888 1.006-.705 1.609-.636.965.035.903 1.523-.046 1.504zm28.094-.083c-1.512-.405-.624-1.785.732-1.608.201-.019.402.043.557.171.156.129.255.314.274.515.067.879-.93.868-1.563.903zm-31.3-.188c-.63-.037-1.632-.029-1.56-.911s1.019-.692 1.63-.611c.946.051.871 1.525-.07 1.504zm34.501-.131c-1.514-.402-.614-1.772.711-1.608.201-.024.403.034.562.159.159.126.261.31.285.511.085.866-.925.874-1.558.919zm-37.699-.193c-.633-.046-1.646-.051-1.56-.938.011-.1.042-.196.091-.284.048-.087.114-.164.192-.227.078-.062.168-.108.265-.135.096-.028.197-.036.296-.024 1.33-.183 2.231 1.176.716 1.589zm40.892-.193c-1.515-.399-.606-1.761.694-1.625.099-.014.2-.008.297.017.097.026.188.07.268.13.08.061.147.137.197.223.05.087.083.183.096.282.107.871-.919.898-1.552.954zm-44.087-.182c-.633-.054-1.657-.073-1.555-.963.12-.844 1.04-.656 1.648-.557.928.077.831 1.522-.085 1.501zm47.272-.268c-.912.021-1.03-1.4-.116-1.518.606-.118 1.523-.332 1.662.512.126.874-.911.917-1.546.987zm-50.462-.159c-.633-.061-1.665-.093-1.553-.986.134-.845 1.051-.641 1.66-.536.919.096.809 1.528-.107 1.504zm53.636-.361c-1.51-.386-.601-1.735.656-1.654.099-.018.2-.016.299.005.098.021.19.062.273.119.082.057.153.13.207.215.054.084.091.178.109.277.142.877-.906.941-1.544 1.019zm-342.0486 0c-.8042-.057-1.6085-1.679-.7319-2.145 1.1259-.609 2.2304 2.051.7319 2.112zm285.2296-.1c-.635-.067-1.675-.115-1.546-1.01.016-.099.051-.194.104-.279.052-.085.121-.159.202-.217.081-.059.173-.101.271-.124.097-.023.198-.026.297-.01 1.268-.14 2.187 1.219.672 1.608zm59.995-.509c-.892.024-1.037-1.362-.147-1.512.6-.142 1.506-.397 1.683.44.151.903-.911.992-1.536 1.072zm-63.155-.051c-.638-.075-1.686-.137-1.544-1.032.017-.099.053-.193.107-.277.054-.085.123-.158.205-.216.082-.057.175-.098.272-.12.098-.021.199-.024.298-.006 1.246-.081 2.16 1.27.649 1.656zm-3.169-.568c-.635-.081-1.691-.158-1.538-1.056.168-.837 1.072-.593 1.678-.456.882.15.745 1.541-.153 1.517zm69.474-.035c-1.496-.367-.592-1.716.619-1.681.198-.044.404-.008.575.1s.292.279.337.476c.169.904-.904 1.016-1.544 1.11zm-72.632-.579c-.613-.078-1.721-.196-1.536-1.072.156-.826 1.115-.577 1.686-.435.874.158.727 1.536-.163 1.512zm75.769-.142c-.872.027-1.043-1.319-.177-1.504.592-.166 1.488-.459 1.702.367.188.904-.895 1.043-1.539 1.142zm-78.935-.502c-.64-.093-1.71-.203-1.533-1.099.193-.831 1.094-.563 1.694-.41.882.169.724 1.526-.161 1.509zm82.031-.268c-1.48-.353-.606-1.68.582-1.705.096-.026.197-.033.296-.02s.195.045.282.095c.086.049.162.116.223.195s.106.17.132.267c.233.882-.861 1.048-1.515 1.168zm-356.0793-.134c-.8203-.045-1.587-1.747-.6702-2.179 1.1446-.534 2.1365 2.118.6809 2.166zm270.8993-.295c-.641-.096-1.719-.219-1.528-1.117.022-.098.064-.19.122-.272.059-.081.133-.15.218-.203s.18-.088.279-.104.2-.013.297.01c1.22-.029 2.115 1.311.622 1.673zm88.284-.426c-2.222-.56.887-2.774 1.507-1.203.252.882-.858 1.075-1.496 1.19zm-91.413-.313c-.616-.094-1.742-.268-1.523-1.14.188-.82 1.137-.536 1.703-.364.871.171.697 1.514-.172 1.49zm94.499-.612c-2.204-.536.855-2.782 1.496-1.235.27.871-.842 1.101-1.488 1.222zm-97.622-.171c-.619-.097-1.748-.268-1.517-1.156.198-.804 1.144-.52 1.707-.345.864.182.681 1.514-.171 1.487zm-3.112-.82c-.62-.1-1.756-.295-1.512-1.175.206-.804 1.15-.504 1.71-.324.858.19.668 1.512-.19 1.485zm103.798 0c-2.174-.502.804-2.805 1.482-1.271.292.874-.817 1.131-1.474 1.254zm-366.663-.287c-.8417-.041-1.5468-1.821-.6032-2.212 1.1447-.477 2.0294 2.158.6113 2.196zm259.763-.569c-.619-.102-1.761-.313-1.509-1.193.22-.804 1.158-.49 1.716-.302.849.195.664 1.506-.199 1.479zm109.94-.209c-2.145-.482.777-2.809 1.471-1.303.311.869-.817 1.159-1.463 1.287zm-113.033-.683c-.336-.065-.667-.155-.99-.268-.951-.268-.509-1.759.437-1.464l.77.228c.841.214.64 1.514-.209 1.488zm116.046-.448c-1.437-.306-.622-1.622.469-1.767.093-.037.192-.055.292-.054.1.002.199.023.291.063.092.039.175.096.245.168.069.072.124.157.161.25.335.863-.801 1.19-1.45 1.324zm-119.127-.48c-.622-.107-1.772-.351-1.498-1.228.236-.804 1.169-.463 1.721-.268.836.215.627 1.507-.215 1.48zm-254.7819-.6c-.8686-.03-1.5039-1.877-.5362-2.236 1.1474-.421 1.9221 2.193.5442 2.22zm376.8949-.124c-2.118-.445.708-2.822 1.445-1.375.367.861-.788 1.223-1.437 1.359zm-125.19-.238c-.622-.11-1.775-.368-1.493-1.244.244-.804 1.174-.453 1.726-.247.834.22.619 1.501-.22 1.467zm-3.061-.995c-.622-.112-1.778-.383-1.486-1.257.252-.804 1.177-.442 1.727-.231.825.228.611 1.499-.228 1.472zm131.203-.043c-2.099-.423.667-2.825 1.429-1.407.38.852-.764 1.252-1.416 1.391zm-134.251-.983c-.625-.113-1.783-.4-1.483-1.271.268-.804 1.182-.429 1.729-.215.82.236.595 1.499-.233 1.469zm137.178-.362c-1.399-.268-.63-1.609.394-1.799.183-.088.392-.099.583-.033.191.067.348.207.436.389.418.853-.748 1.287-1.4 1.427zm-383.8194-.322c-.8927-.024-1.4556-1.957-.4638-2.26 1.1393-.335 1.8015 2.26.4638 2.26zm243.6144-.4c-.625-.115-1.788-.415-1.477-1.286.268-.804 1.185-.416 1.729-.196.802.273.571 1.523-.252 1.493zm143.108-.723c-2.029-.365.579-2.858 1.397-1.477.413.863-.743 1.345-1.397 1.487zm-146.137-.36c-.625-.117-1.791-.434-1.475-1.302.268-.805 1.191-.405 1.735-.177.793.281.56 1.517-.26 1.49zm-3.021-1.112c-.625-.121-1.791-.448-1.467-1.316.284-.804 1.193-.394 1.735-.164.79.279.549 1.517-.268 1.491zm152.013-.019c-2.008-.346.536-2.857 1.378-1.512.437.855-.724 1.381-1.378 1.523zm-390.4889-.461c-.9221-.019-1.4047-2.027-.3913-2.281 1.1446-.274 1.6969 2.27.3913 2.281zm235.4599-.651c-.625-.118-1.794-.461-1.461-1.327.289-.788 1.195-.384 1.734-.148.791.274.55 1.504-.265 1.475zm157.836-.437c-1.986-.33.496-2.863 1.356-1.55.47.834-.688 1.405-1.348 1.55zm-160.844-.727c-.627-.123-1.799-.477-1.458-1.34.297-.788 1.201-.375 1.737-.134.796.279.549 1.501-.26 1.474zm163.608-.909c-1.965-.31.453-2.863 1.34-1.584.496.823-.651 1.442-1.321 1.584zm-166.597-.268c-.627-.123-1.799-.49-1.453-1.34.306-.785 1.204-.367 1.74-.121.793.26.539 1.475-.279 1.448zm-230.2269-.123c-.9516 0-1.3403-2.091-.3136-2.297 1.1527-.242 1.5897 2.281.3324 2.284zm227.2489-1.091c-.628-.123-1.802-.504-1.448-1.364.311-.783 1.206-.354 1.74-.105.785.273.531 1.482-.274 1.456zm172.304-.212c-1.941-.295.407-2.863 1.313-1.608.526.791-.632 1.453-1.294 1.595zm-175.272-1.026c-.627-.124-1.804-.515-1.442-1.373.313-.78 1.206-.346 1.737-.094.783.279.523 1.483-.276 1.453zm177.953-.754c-1.301-.179-.665-1.53.227-1.847.083-.059.177-.1.276-.123.099-.022.201-.024.301-.006s.195.056.281.111c.085.055.158.127.215.211.539.783-.617 1.501-1.282 1.641zm-402.8102-.091c-.9865 0-1.2895-2.144-.2332-2.311 1.1259-.169 1.4502 2.314.2332 2.311zm221.9162-.426c-.627-.126-1.806-.536-1.437-1.383.319-.78 1.209-.341 1.74-.081.756.295.493 1.491-.303 1.464zm-2.948-1.282c-.63-.126-1.807-.536-1.435-1.391.327-.777 1.215-.332 1.74-.07.753.301.488 1.491-.305 1.461zm186.49-.069c-1.892-.268.322-2.861 1.265-1.689.553.783-.592 1.552-1.265 1.689zm-189.431-1.228c-.63-.129-1.81-.552-1.429-1.405.33-.774 1.214-.321 1.74-.056.748.306.48 1.499-.311 1.461zm-216.4588-.18c-1.0214 0-1.2278-2.219-.1555-2.321 1.1232-.107 1.3323 2.327.1555 2.321zm408.4688-.517c-1.276-.164-.678-1.493.164-1.858.16-.123.362-.178.563-.154.2.025.383.127.509.286.579.769-.563 1.592-1.236 1.726zm-194.943-.622c-.63-.129-1.812-.563-1.426-1.413.335-.772 1.217-.313 1.74-.045.745.308.474 1.474-.314 1.458zm-2.925-1.324c-.63-.126-1.812-.571-1.42-1.421.337-.769 1.217-.306 1.739-.035.738.298.467 1.472-.319 1.456zm200.391-.038c-1.845-.228.227-2.855 1.209-1.761.597.74-.545 1.617-1.212 1.748zm-411.2572-.702c-1.0723 0-1.1608-2.284-.0724-2.33 1.0884-.045 1.2037 2.335.0724 2.33zm207.9442-.625c-.63-.128-1.812-.581-1.418-1.429.346-.766 1.223-.3 1.743-.026.737.313.453 1.479-.325 1.455zm205.771-.756c-1.249-.15-.692-1.453.102-1.876.151-.133.349-.201.55-.188.201.012.388.104.522.255.63.75-.491 1.683-1.174 1.809zm-208.682-.614c-.63-.126-1.815-.587-1.415-1.431.348-.769 1.222-.298 1.742-.019.732.317.456 1.48-.327 1.45zm-205.1244-1.233c-1.1071 0-1.0722-2.337.0161-2.319 1.0884.019 1.0696 2.317-.0161 2.319zm202.2214-.147c-.633-.129-1.818-.595-1.413-1.44.351-.766 1.223-.289 1.743 0 .729.309.45 1.469-.33 1.44zm213.984-.145c-1.238-.145-.7-1.437.067-1.876.148-.137.343-.21.544-.203s.391.094.528.24c.657.737-.45 1.716-1.139 1.839zm-216.885-1.249c-.63-.129-1.815-.603-1.41-1.445.357-.767 1.225-.287 1.743 0 .726.316.447 1.474-.333 1.445zm219.217-.962c-1.766-.18.083-2.839 1.113-1.877.673.713-.418 1.761-1.113 1.877zm-222.109-.445c-.633-.129-1.818-.609-1.408-1.451.36-.764 1.225-.268 1.743 0 .724.325.442 1.48-.335 1.451zm-196.3399-.269c-1.1473 0-1.0187-2.412.1019-2.326 1.075.085.9463 2.343-.1019 2.34zm193.4449-1.147c-.633-.129-1.818-.616-1.405-1.458.359-.762 1.225-.268 1.742 0 .735.338.445 1.48-.337 1.458zm227.259-.418c-1.74-.166.035-2.834 1.072-1.895.713.678-.362 1.782-1.064 1.895zm-230.136-1.008c-.633-.131-1.817-.622-1.402-1.461.362-.761 1.228-.268 1.743.013.718.327.434 1.475-.341 1.448zm-190.3052-.617c-1.1902 0-.9436-2.461.185-2.318 1.0562.126.823 2.316-.185 2.318zm422.6522-.721c-1.193-.126-.713-1.375-.032-1.876.135-.15.323-.24.524-.251.2-.012.398.056.549.189.713.668-.341 1.831-1.041 1.938zm-235.213-.099c-.632-.129-1.817-.627-1.399-1.466.365-.759 1.228-.268 1.743.021.702.33.415 1.475-.357 1.445zm-2.873-1.442c-.636-.132-1.821-.633-1.4-1.469.365-.759 1.228-.268 1.743.024.702.33.413 1.482-.357 1.445zm240.193-.874c-1.683-.137-.061-2.815 1.008-1.96.743.636-.289 1.861-1.01 1.96zm-424.3222-.051c-1.2332 0-.8713-2.509.2681-2.308 1.0347.182.7023 2.3-.2681 2.308zm181.2442-.536c-.632-.132-1.817-.636-1.396-1.472.367-.759 1.23-.268 1.742.027.7.343.432 1.482-.348 1.456zm-2.871-1.45c-.632-.132-1.82-.638-1.397-1.475.37-.759 1.231-.268 1.743.03.713.337.426 1.477-.346 1.445zm247.989-.448c-1.16-.113-.729-1.341-.107-1.858l1.207.933c-.314.354-.563.941-1.1.93zm-425.7644-.727c-1.2734 0-.8042-2.552.3485-2.289 1.016.247.5897 2.279-.3485 2.289zm174.9094-.268c-.632-.128-1.82-.64-1.396-1.477.372-.756 1.233-.268 1.745.035.71.319.421 1.458-.349 1.429zm-2.868-1.477c-.633-.131-1.82-.643-1.394-1.477.373-.759 1.233-.268 1.743.035.723.34.423 1.469-.349 1.442zm255.675-.083c-1.608-.107-.182-2.791.914-2.037.804.581-.171 1.954-.911 2.037zm-426.9497-1.287c-1.3163-.013-.7158-2.597.4289-2.27.9919.276.4772 2.244-.4289 2.27zm168.4147-.091c-.633-.128-1.82-.643-1.394-1.477.372-.756 1.233-.268 1.742.038.711.324.421 1.461-.348 1.431zm260.387-1.249c-1.587-.094-.23-2.777.874-2.064.826.549-.118 1.978-.874 2.064zm-263.248-.217c-.635-.131-1.82-.646-1.394-1.48.373-.756 1.231-.268 1.743.038.71.319.421 1.461-.349 1.434zm-2.857-1.477c-.633-.132-1.821-.646-1.394-1.48.372-.756 1.233-.268 1.742.038.705.335.416 1.469-.348 1.442zm-161.7611-.054c-1.3619-.021-.6407-2.635.5039-2.246.9624.332.3646 2.219-.5093 2.246zm429.6411-.951c-1.563-.084-.268-2.764.837-2.089.836.534-.076 2.019-.842 2.089zm-270.754-.464c-.633-.132-1.818-.644-1.391-1.48.372-.756 1.23-.268 1.742.038.716.335.424 1.469-.346 1.442zm-2.86-1.469c-.636-.129-1.821-.641-1.394-1.477.37-.756 1.23-.268 1.742.034.716.336.426 1.472-.343 1.443zm-154.9468-.142c-1.4047-.035-.5603-2.681.5817-2.22.9436.381.2654 2.182-.5817 2.22zm430.2578-.663c-1.539-.077-.322-2.753.804-2.112.845.512-.037 2.045-.812 2.112zm-278.172-.659c-.632-.131-1.817-.641-1.394-1.477.37-.756 1.231-.268 1.743.035.713.332.421 1.469-.349 1.442zm-2.865-1.464c-.633-.128-1.818-.638-1.394-1.471.37-.759 1.23-.268 1.742.029.713.333.424 1.472-.348 1.442zm-147.977-.182c-1.4502-.046-.4798-2.705.6595-2.187.9115.426.1635 2.155-.6595 2.187zm430.622-.48c-1.514-.067-.361-2.737.762-2.144.876.501.027 2.085-.762 2.144zm-285.498-.804c-.632-.131-1.82-.635-1.399-1.472.37-.758 1.233-.268 1.745.027.7.343.41 1.483-.359 1.456zm-2.884-1.429c-.633-.129-1.818-.633-1.4-1.469.368-.759 1.231-.268 1.743.024.716.319.429 1.461-.343 1.445zm-140.8406-.171c-1.4959-.062-.3994-2.737.7318-2.145.882.453.0644 2.075-.7318 2.131zm430.7616-.411c-1.49-.059-.407-2.721.721-2.144.896.442.081 2.077-.721 2.131zm-292.795-.876c-.633-.132-1.817-.627-1.399-1.467.364-.758 1.227-.268 1.742.022.716.33.426 1.472-.343 1.445zm-2.876-1.44c-.633-.128-1.818-.622-1.402-1.461.362-.761 1.227-.268 1.742.016.719.322.432 1.475-.34 1.445zm-133.5411-.107c-1.5441-.078-.3137-2.764.8042-2.11.8498.518-.0295 2.043-.8042 2.11zm430.6681-.461c-1.464-.051-.451-2.705.681-2.174.911.44.134 2.126-.681 2.174zm-300.009-.861c-.633-.128-1.818-.616-1.405-1.458.362-.761 1.228-.268 1.743 0 .721.338.437 1.496-.338 1.458zm-128.9596-1.41c-1.5896-.096-.2305-2.79.8766-2.064.8123.563-.1233 1.984-.8766 2.064zm126.0726 0c-.63-.128-1.815-.611-1.408-1.453.36-.764 1.228-.268 1.745 0 .724.319.44 1.469-.337 1.443zm304.263-.632c-1.437-.043-.501-2.681.635-2.196.931.4.201 2.131-.635 2.185zm-307.153-.788c-.633-.129-1.815-.606-1.41-1.448.356-.764 1.225-.284 1.742 0 .727.319.445 1.474-.332 1.448zm-121.3355-1.217c-1.6406-.116-.1421-2.81.9489-2.011.7721.6-.2171 1.922-.9489 2.011zm118.4375-.183c-.63-.128-1.815-.598-1.413-1.439.351-.767 1.225-.29 1.745 0 .73.308.448 1.469-.332 1.439zm311.319-.777c-1.405-.035-.555-2.662.582-2.22.951.378.268 2.172-.582 2.22zm-314.222-.609c-.63-.128-1.812-.589-1.416-1.434.349-.769 1.225-.295 1.745-.019.732.319.454 1.477-.329 1.453zm-113.5454-.959c-1.6889-.14-.051-2.829 1.0187-1.955.7318.641-.303 1.866-1.0187 1.955zm110.6364-.413c-.63-.129-1.812-.582-1.418-1.426.343-.772 1.222-.303 1.743-.027.734.313.458 1.482-.325 1.453zm318.289-1.016c-1.372-.027-.614-2.638.536-2.241.963.337.335 2.206-.536 2.241zm-321.205-.338c-.63-.126-1.81-.571-1.421-1.418.337-.772 1.219-.308 1.742-.038.74.309.464 1.48-.321 1.451zm-105.5892-.638c-1.7398-.166.0428-2.844 1.0857-1.895.6862.675-.3861 1.777-1.0857 1.89zm102.6722-.702c-.63-.129-1.81-.563-1.426-1.413.335-.772 1.217-.314 1.742-.046.737.306.467 1.48-.321 1.453zm-2.933-1.341c-.228.027-.831-.319-1.043-.394-.911-.391-.268-1.809.622-1.394l.735.33c.74.314.472 1.496-.319 1.466zm328.098-.045c-1.34-.016-.678-2.606.461-2.263.986.308.429 2.249-.466 2.271zm-425.564-.207c-1.7934-.193.1367-2.857 1.1501-1.828.638.726-.4692 1.713-1.1554 1.836zm94.528-1.056c-.63-.126-1.807-.536-1.434-1.391.324-.78 1.214-.33 1.742-.07.746.311.48 1.499-.313 1.469zm-92.1287-1.072c-1.847-.225.2332-2.866 1.2117-1.756.5897.748-.5415 1.619-1.2171 1.75zm89.1797-.199c-.627-.126-1.804-.536-1.439-1.383.319-.78 1.211-.34 1.742-.08.751.292.488 1.485-.308 1.458zm334.88-.536c-1.292 0-.753-2.563.384-2.281 1.01.233.536 2.249-.389 2.265zm-337.845-.729c-.627-.126-1.801-.509-1.447-1.367.311-.786 1.209-.354 1.742-.102.762.29.504 1.496-.295 1.469zm-83.6948-.536c-1.2921-.172-.6675-1.52.2064-1.855.0817-.06.1744-.103.2729-.126.0984-.024.2005-.027.3004-.011.0998.017.1954.053.281.107.0857.054.1598.124.218.207.5308.791-.6139 1.544-1.2787 1.683zm80.7198-.697c-.209.021-.829-.295-1.03-.357-.922-.356-.343-1.798.569-1.415l.748.3c.772.29.52 1.504-.287 1.477zm-78.0766-1.129c-1.3404-.225-.6541-1.525.268-1.841.1718-.107.3789-.141.5759-.095.197.045.3678.167.475.339.4906.82-.6595 1.458-1.3189 1.603zm75.0876-.061c-.644-.134-1.778-.448-1.461-1.341.073-.188.218-.34.402-.423.185-.082.395-.088.584-.016 1.107.161 1.912 1.479.475 1.785zm344.536 0c-1.247 0-.839-2.512.292-2.303 1.043.196.667 2.297-.292 2.305zm-347.541-1.14c-.644-.131-1.772-.423-1.469-1.305.689-1.509 3.624.826 1.469 1.305zm-69.3268-.45c-2.0079-.346.5361-2.868 1.3779-1.512.4289.842-.7265 1.367-1.3779 1.512zm66.3028-.651c-.644-.126-1.767-.392-1.48-1.276.67-1.528 3.648.788 1.48 1.276zm-63.4479-.834c-2.0588-.389.6407-2.863 1.4208-1.426.3753.866-.772 1.289-1.4208 1.431zm414.5519-.099c-1.193 0-.933-2.45.187-2.319 1.07.126.818 2.321-.187 2.324zm-354.15-.105c-.643-.123-1.755-.359-1.49-1.246.651-1.553 3.675.74 1.49 1.252zm-3.064-.973c-.643-.118-1.747-.324-1.501-1.217.625-1.56 3.716.67 1.501 1.222zm-54.3971-.134c-2.1446-.458.7399-2.828 1.4556-1.34.3217.884-.8122 1.214-1.4556 1.34zm51.3121-.777c-.641-.113-1.737-.285-1.512-1.18.026-.097.071-.187.132-.267.061-.079.138-.145.224-.195.087-.05.183-.082.283-.095.099-.012.2-.005.296.021 1.153.029 2.054 1.391.577 1.726zm-48.3043-.349c-2.1794-.507.831-2.812 1.4878-1.26.2708.887-.8444 1.134-1.4878 1.26zm45.1943-.469c-.638-.105-1.721-.244-1.52-1.139.024-.098.067-.189.126-.27.059-.08.134-.149.22-.2.085-.052.18-.087.279-.102s.2-.01.297.014c1.199 0 2.089 1.338.598 1.697zm363.722-.389c-1.134 0-1.032-2.372.067-2.329s.992 2.329-.067 2.329zm-405.8495-.11c-2.2331-.571.9168-2.777 1.5119-1.179.2225.893-.8712 1.067-1.5119 1.179zm38.9995-.246c-.638-.094-1.708-.201-1.534-1.094.043-.198.163-.371.334-.481.17-.11.377-.148.575-.106 1.215-.038 2.126 1.313.625 1.681zm-35.8845-.558c-.8766.027-1.0428-1.34-.1716-1.504.5978-.161 1.5093-.431 1.7023.405.1769.895-.8927 1.003-1.5307 1.099zm32.7345-.096c-.635-.083-1.689-.156-1.542-1.049.167-.841 1.073-.6 1.687-.463.89.15.748 1.536-.145 1.512zm-29.5847-.536c-1.5119-.389-.5924-1.743.6675-1.655.1997-.032.4042.016.5689.133.1647.118.2763.295.3104.495.1314.882-.9114.935-1.5468 1.016zm26.416 0c-.6327-.07-1.6674-.108-1.5495-1 .1394-.845 1.0723-.636 1.6701-.515.9091.102.7881 1.517-.1233 1.493zm-3.1847-.451c-.63-.053-1.646-.059-1.5575-.946.0884-.887 1.0401-.673 1.6513-.574.9275.073.831 1.52-.0938 1.499zm-20.0519-.032c-1.5227-.402-.5978-1.772.7077-1.608.0995-.013.2005-.005.2971.022s.1869.072.2657.135c.0788.062.1445.139.1933.226.0488.088.0797.184.091.284.0912.855-.9249.863-1.5548.933zm16.8538-.306c-.6273-.034-1.6085 0-1.5629-.887.0074-.1.0345-.197.0797-.287.0451-.089.1075-.168.1834-.234.076-.065.164-.115.2592-.146.0951-.031.1955-.043.2953-.035 1.3618-.231 2.2626 1.16.7453 1.568zm-13.6584-.04c-1.52-.407-.6139-1.799.7479-1.587.2-.012.3968.055.5475.187s.243.318.2568.518c.0643.855-.9249.829-1.5522.861zm10.4549-.177c-.622 0-1.587.043-1.5656-.828.0215-.871.9865-.748 1.6085-.697.9624.008.9141 1.52-.051 1.504zm-7.238-.027c-.1969.001-.3862-.076-.5282-.212-.1419-.137-.2255-.323-.2331-.519-.0268-.858.9221-.826 1.5414-.823.2017-.006.3976.068.5448.206.1471.138.2336.329.2406.531.0108.847-.9489.791-1.5709.796zm4.0211-.067c-.6166.019-1.5575.092-1.5682-.764-.0108-.855.957-.788 1.5736-.761.9811-.027.9731 1.52-.0108 1.504zm386.0259-.536c-1.072 0-1.153-2.27-.078-2.327 1.075-.056 1.209 2.298.072 2.292zm-.268-3.217c-.984 0-1.282-2.144-.244-2.31 1.139-.215 1.463 2.286.244 2.286zm-.62-3.155c-.903-.019-1.415-1.981-.434-2.27 1.15-.362 1.753 2.233.434 2.246zm-1.015-3.048c-.829-.04-1.547-1.78-.636-2.195 1.145-.534 2.072 2.128.636 2.171zm-1.432-2.876c-.761-.07-1.659-1.552-.836-2.089 1.117-.718 2.399 1.982.836 2.065zm-1.839-2.635c-.71-.1-1.74-1.309-1.019-1.952 1.07-.911 2.713 1.788 1.032 1.927zm-2.196-2.346c-.678-.126-1.79-1.072-1.171-1.802.133-.151.32-.243.521-.258.2-.014.399.052.551.183.788.397 1.349 1.705.099 1.853zm-2.487-2.032c-.66-.139-1.81-.853-1.292-1.649.113-.167.288-.282.487-.321.198-.038.403.003.572.115.892.295 1.536 1.667.233 1.831zm-2.713-1.724c-.633-.102-1.609-.651-1.209-1.418.844-1.391 3.136 1.094 1.209 1.394z" fill="#fdab76"/><path d="m50.8838 294.983h110.1782v-16.889h-110.1782c2.359-.008 2.359 16.889 0 16.889z" fill="#c4cdd5"/><g fill="#919eab"><path d="m161.061 290.755c-.268-4.193 1.68-12.538-4.866-12.669h-104.8488c-2.1098 0-3.8228-1.314-3.8228-2.93.0724-2.571 114.6526-.022 115.7566-.893 9.024 1.238 6.474 11.297 6.796 17.872 0 3.684-4.051 6.67-6.528 6.67h-114.2606c-.9731 0-1.764-.606-1.764-1.354 0-1.362 1.4423-2.469 3.2169-2.469h106.1567c1.113-.009 2.176-.459 2.957-1.252.78-.793 1.214-1.863 1.207-2.975z"/><path d="m158.005 281.954c-.472-.402-103.7444.769-103.7069-.402-.4155-.453 106.1009-1.437 103.7069.402z"/><path d="m158.005 284.463c-.472-.402-103.7444.77-103.7069-.402-.4155-.453 106.1009-1.445 103.7069.402z"/><path d="m158.005 286.97c-.472-.403-103.7444.772-103.7069-.4-.4155-.456 106.1009-1.439 103.7069.4z"/><path d="m158.005 289.479c-.472-.402-103.7444.769-103.7069-.402-.4155-.453 106.1009-1.437 103.7069.402z"/><path d="m158.005 291.998c-.472-.402-103.7444.77-103.7069-.402-.4155-.463 106.1009-1.45 103.7069.402z"/></g><path d="m169.53 331.526h-164.14441c-2.97438 0-5.38559 2.411-5.38559 5.386v22.274c0 2.974 2.41121 5.385 5.38559 5.385h164.14441c2.974 0 5.385-2.411 5.385-5.385v-22.274c0-2.975-2.411-5.386-5.385-5.386z" fill="#dfe3e8"/><path d="m38.374 360.773c-25.6037-.386-17.213 4.621-18.607-23.508 0-.515.2044-1.008.5683-1.373.3639-.364.8576-.569 1.3726-.57h16.6661c.515.001 1.0087.206 1.3726.57.3639.365.5683.858.5683 1.373v21.564c0 .515-.2044 1.009-.5683 1.374-.3639.364-.8576.569-1.3726.57z" fill="#f4f6f8"/><path d="m171.924 300.642v5.691c.295 2.681-5.123 3.353-2.217 5.002 2.509 1.496-4.63 2.102-.126 4.64 2.311 1.901-2.93 2.279-1.25 4.134.507.459 1.151 1.091 1.102 1.794v8.985h-128.9779v-30.788z" fill="#dfe3e8"/><path d="m44.9222 307.23c.6192-.362 122.7778.692 122.9628-.359.308-.397-125.4479-1.313-122.9628.359z" fill="#919eab"/><path d="m44.9229 312.589c.6139-.362 119.8901.695 120.0651-.359.305-.394-122.5501-1.311-120.0651.359z" fill="#919eab"/><path d="m44.9214 316.535c.6139-.364 118.4056.695 118.5766-.359.295-.389-121.0616-1.311-118.5766.359z" fill="#919eab"/><path d="m38.116 298.138h136.632c1.04 0 1.97.566 2.067 1.34.115.888-.818 1.633-1.982 1.633h-126.691c-8.7392-.172-6.0263 19.494-4.5733 25.467.453 1.812 2.5788 3.126 5.0478 3.126h123.6275c20.29 6.669-138.9854 1.383-133.2326 2.975-3.1874 0-5.9325-1.699-6.5008-4.04-1.7693-7.235-4.8387-31.01 5.6054-30.501z" fill="#c4cdd5"/><path d="m115.793 244.191c-.051-.019-27.6674-48.379-31.399-52.931-1.3538-2.215-8.3103-.014-10.2887-.118l-9.0555 19.588 15.0845-8.785c-1.4905 10.324 17.8885 25.665 24.5337 31.263 1.936 1.573-1.764 3.873-2.533 5.002 4.356 4.415 9.383 7.238 15.055 8.562z" fill="#fdbab9"/><path d="m103.668 236.711c-.662 0-3.812 2.442-1.608 4.043 2.788 1.997 11.985 8.447 16.231 9.709 1.673.03-.624-3.825-2.592-6.401 1.941 4.455-11.12-5.678-12.031-7.351z" fill="#063963"/><path d="m105.033 256.061c-.046-.032-4.188-10.013-4.236-10.042-3.7984-23.13-13.0657-42.935-15.8-48.149-.8739-2.439-8.1468-1.699-10.0528-2.198l-12.8299 17.35 16.5508-5.549c-3.552 9.806 12.3314 28.753 17.6928 35.581 1.5495 1.935-2.4877 3.431-3.4849 4.383 3.3724 5.206 7.721 8.999 13.01 11.433z" fill="#fdbab9"/><path d="m94.6778 246.282c-.6488-.124-4.2275 1.608-2.4127 3.632 2.3269 2.52 10.0289 10.699 13.9399 12.793 1.635.369.166-3.874-1.241-6.793 1.008 4.758-9.7286-7.823-10.2862-9.632z" fill="#063963"/><path d="m38.7449 192.007s-6.9967 10.407-7.5704 15.152 1.9328 6.388 9.2566 6.994c21.7917 1.812 32.5334-4.721 32.5334-4.721 1.4931-9.506 2.552-11.924 15.0121-17.09-8.9885 1.255-40.6158-1.576-49.2317-.335z" fill="#212b36"/><path d="m59.4475 130.664s-3.4849 1.391-4.2248 3.217c-.6059 1.469-4.3294 1.397-4.9084 4.329-1.2653 5.482-11.6854.309-14.2776 11.15-2.1446 9.538 7.6454 5.811 6.5597 12.516-.5361 1.876-.1099 4.134 3.0748 6.12 7.1388 4.442 15.4974-8.203 15.4974-8.203l3.1686-22.923z" fill="#063963"/><path d="m57.6657 190.64s8.1468-7.747 12.1571-12.897c1.0672-1.37 1.7917-2.975 2.1129-4.681.3213-1.707.2302-3.466-.2658-5.13-1.831-6.166-5.0934-12.559-5.383-13.554-.453-1.522-9.5889-1.461-9.5889-1.461s-17.977 11.669-25.0408 31.432l7.9323 2.469s4.694-7.874 9.3317-12.868c0 0-8.0235 10.6-8.3103 14.94z" fill="#fdab76"/><path d="m73.1842 193.702-6.1228-6.662c-13.6181 4.713-21.6657 1.877-35.4098-2.681-1.6084 4.807-3.7691 7.016 2.0615 9.683 6.9297.697 34.3777.314 39.4711-.34z" fill="#fdbab9"/><path d="m61.2579 141.36-4.4259 11.991c.4048 2.493 6.6804 2.563 7.6508 1.073.0947-.155.1602-.326.1931-.504l1.9864-9.383c.5066-1.751-2.2626-2.469-3.308-3.158-.9329-.493-1.772-1.032-2.0964-.019z" fill="#fdbab9"/><path d="m67.6547 130.351s3.0775 2.412 4.0694 8.104c1.7585 10.672-7.7232 8.272-11.9641 1.769-2.6218-4.22 3.8441-12.865 7.8947-9.873z" fill="#fdbab9"/><path d="m62.8578 138.176s-.6112-8.08 5.9378-6.381l1.2438 1.494c5.9861-6.126-6.7339-12.782-11.4467-4.29-3.123 4.826-4.3803 8.311-2.2893 11.6s4.013.743 4.013.743-.8658-2.786.0992-3.885c.9651-1.099 1.9677.82 1.9677.82z" fill="#063963"/><path d="m62.4598 138.487c-.3646-6.029-6.4338-2.852-.9141 1.756z" fill="#fdbab9"/><path d="m52.924 196.336s28.1987-.04 28.2228-.04c.3342 0 .6546-.133.8909-.369s.369-.557.369-.891-.1327-.654-.369-.891c-.2363-.236-.5567-.369-.8909-.369l-28.1477.03c-1.6031-.014-1.6674 2.49-.0751 2.53z" fill="#116e95"/><path d="m106.46 170.77c-35.0531.346-22.5019-4.962-38.3343 25.553h29.1423c.545 0 1.0773-.164 1.528-.471.4508-.306.7991-.741.9999-1.247l8.4071-21.272c.111-.284.152-.591.118-.895-.034-.303-.141-.594-.313-.846-.172-.253-.402-.46-.672-.603s-.57-.218-.876-.219z" fill="#116e95"/><path d="m89.9382 182.558c-1.2278 3.702 2.3564 4.855 3.5172 1.131 1.2277-3.699-2.3564-4.855-3.5172-1.131z" fill="#22b8cf"/><path d="m129.888 316.6c-.981 1.453-4.882 34.313-5.49 46.465-.025.372.096.738.337 1.022.241.285.582.464.953.502.37.037.741-.071 1.033-.302.293-.231.484-.566.534-.935l7.134-45.707z" fill="#22b8cf"/><path d="m161.239 316.6c.981 1.453 4.882 34.313 5.493 46.465.009.194-.022.389-.09.571s-.173.349-.308.49c-.134.14-.296.252-.475.328s-.372.115-.567.115c-.901.15-1.552-1.239-1.423-1.231l-7.131-45.693z" fill="#22b8cf"/><path d="m123.987 314.034c-.203 2.727 2.048 5.054 4.979 5.094l32.973.56c2.742.046 5.026-1.935 5.16-4.474.316-2.775-1.957-5.209-4.951-5.257l-32.973-.593c-2.839-.042-5.163 2.054-5.188 4.67z" fill="#77f0ed"/><path d="m188.124 361.87c-5.861 0-8.453-.502-9.614-.96.114.489.39.926.783 1.239.393.312.881.482 1.383.482h20.733c.155 0 .308-.036.447-.104.139-.069.261-.169.355-.292s.158-.267.188-.419.024-.309-.017-.458c-2.364.19-7.382.512-14.258.512z" fill="#003471"/><path d="m202.396 361.357c-4.96-8.554-15.388-4.045-22.677-5.436-.163.841-1.517 4.163-1.195 4.989 2.694 1.592 21.934.731 23.872.447z" fill="#003471"/><path d="m181.127 351.779-1.421 4.825s3.15 1.435 5.924.268l.537-4.189z" fill="#fdbab9"/><path d="m223.977 356.602c-4.557 3.67-6.769 7.125-7.96 7.495.395.309.883.476 1.384.472.502-.003.987-.176 1.377-.491l16.163-12.985c.123-.097.221-.22.288-.361s.1-.296.096-.452c-.003-.156-.043-.309-.115-.448-.073-.138-.177-.257-.304-.348-1.735 1.638-5.567 2.81-10.929 7.118z" fill="#003471"/><path d="m234.895 349.495c-9.197-3.53-14.527 6.509-21.065 9.986.397.756 1.413 4.179 2.177 4.616 3.109-.45 17.564-13.178 18.888-14.602z" fill="#003471"/><path d="m150.694 296.655c58.196 4.7 47.181 3.88 36.41 57.132 0 0-1.96.941-6.319-.413 0 0 4.472-35.045 1.145-42.645l-37.992-6.214z" fill="#212b36"/><path d="m210.34 352.811c.327.295 3.485 6.67 3.485 6.67s3.517-.761 4.235-2.989l-3.166-5.753z" fill="#fdbab9"/><path d="m129.564 296.36c-2.576 5.63-.818 15.347 8.082 15.817l41.479 1.892c.426.02.835.176 1.166.445.33.269.565.638.671 1.051.976 3.769 5.739 15.347 29.027 38.45 1.512 1.731 4.289-1.249 5.629-1.842.168-.106.288-.272.335-.465s.017-.396-.083-.567l-24.142-41.238c-1.27-2.094-3.31-3.607-5.684-4.211l-35.35-9.037z" fill="#212b36"/><path d="m170.438 231.95s-4.444 7.855-8.972 11.662l9.364 5.227s2.109-8.31 6.929-10.752z" fill="#fdbab9"/><path d="m128.81 296.655s11.197 2.729 21.885 0c0 0 14.956-20.105 20.741-25.577 0 0 9.23 14.562 29.772 16.621l1.147-2.56c-25.491-11.61-19.475-26.105-33.026-38.67-2.852-1.876-4.557-3.166-5.445-3.868-7.152 1.289-28.48 18.033-35.074 54.054z" fill="#fa541c"/><path d="m170.83 270.677c-3.782-3.552-6.037-10.429-6.096-10.187-.289-.721.853-1.166 1.123-.432 1.404 3.433 3.235 6.676 5.45 9.651.068.089.11.195.12.307.011.111-.01.224-.059.324-.05.101-.126.185-.221.245-.095.059-.205.091-.317.092z" fill="#b3200e" opacity=".24"/><path d="m199.982 283.809c1.507-.463 7.686-1.857 9.335-2.243 1.997-.786 6.852 3.485 8.503 4.214l-16.669-.027z" fill="#fdbab9"/><path d="m177.494 220.155c.73 1.552 10.801 17.361 2.504 19.007-4.514 1.415-8.712-.376-11.345-4.078 0 0-4.114-5.699-3.704-8.31s12.545-6.619 12.545-6.619z" fill="#fdbab9"/><path d="m169.854 232.015.584-.076s-3.059-4.621-1.056-5.766c2.002-1.144 10.154-3.959 11.567-7.171 2.021-3.605-2.994-9.023-3.662-6.734-.021.06-.06.111-.111.149-.051.037-.112.057-.175.059-.064.002-.126-.015-.179-.05-.053-.034-.095-.083-.119-.142-.025-.055-.066-.102-.117-.135s-.11-.051-.171-.051-.121.018-.172.051-.091.08-.116.135c-2.333 4.748-15.283 4.654-14.265 12.428.006.056-.003.113-.026.164s-.06.095-.105.128c-.046.032-.1.052-.156.057s-.112-.006-.163-.03c-4.04-.295-3.016 5.289 1.555 7.855.042.025.079.059.105.101.027.041.043.089.048.138s-.001.099-.019.145-.047.087-.083.12c-2.893 2.466 5.592 3.753 5.801 2.983.536.017-.536-3.602-.48-3.82-.137-.571 1.241-.418 1.515-.538z" fill="#063963"/><path d="m170.095 232.728c-3.707-8.109-7.458.466-.268 2.206z" fill="#fdbab9"/><path d="m193.532 289.05s35.654-.04 35.694-.032c.422 0 .827-.168 1.126-.467.298-.298.466-.704.466-1.126s-.168-.827-.466-1.126c-.299-.298-.704-.466-1.126-.466l-35.614.037c-2.013-.037-2.096 3.118-.08 3.18z" fill="#063963"/><path d="m243.02 254.173s-15.012 32.357-15.012 32.381c-.088.19-.138.395-.147.603-.009.209.024.418.096.614.071.196.181.377.323.53.141.154.312.279.501.367.19.088.395.138.604.146.208.009.417-.023.613-.095s.377-.182.53-.323c.154-.142.279-.312.367-.502l14.985-32.305c.869-1.815-1.951-3.217-2.86-1.416z" fill="#063963"/><path d="m209.389 290.838c-.156.643-15.013 56.376-18.782 70.503-.086.323-.108.659-.065.99.044.331.153.65.321.939.167.289.39.542.656.744.265.202.568.35.891.435s.66.105.991.059c.33-.046.649-.156.937-.325.288-.17.539-.394.74-.661s.347-.571.43-.894l16.494-66.876z" fill="#22b8cf"/><path d="m217.527 290.838c.156.643 15.012 56.376 18.782 70.503.101.377.114.772.039 1.155-.075.382-.237.743-.473 1.053-.236.311-.54.563-.889.738-.348.175-.732.268-1.122.271-1.397.252-2.649-1.895-2.461-1.962-.325-1.298-16.489-66.844-16.489-66.844z" fill="#22b8cf"/><path d="m208.89 289.015h9.257v6.799c.013 1.729-1.574 2.782-3.182 2.568h-2.893c-1.383.163-3.206-.182-3.182-1.933z" fill="#22b8cf"/><path d="m186.138 287.23h51.676c.353.002.696.121.973.339.278.218.475.522.561.864.268 1.416 1.823 4.751-.823 4.826l-53.017-.303c-.241-.006-.478-.065-.693-.174-.215-.11-.402-.266-.549-.457-.146-.192-.248-.414-.297-.65s-.044-.48.014-.714c.453-1.107.367-3.844 2.155-3.731z" fill="#77f0ed"/></svg>